<svg xmlns="http://www.w3.org/2000/svg" viewBox="0 0 372 215"><defs><style>.cls-1{isolation:isolate;}.cls-2{fill:#f59745;}.cls-3{fill:#d57125;}.cls-4{fill:#cb4200;}.cls-13,.cls-4{opacity:0.55;}.cls-5{fill:#bc5b2a;}.cls-6{fill:#ac4d25;}.cls-7{fill:#923e25;}.cls-8{fill:#79ae27;}.cls-9{fill:#9dca29;}.cls-10{fill:#fdcd08;}.cls-11{fill:#eea408;}.cls-12{fill:#e42125;}.cls-13{fill:#c22125;}.cls-13,.cls-17,.cls-18{mix-blend-mode:multiply;}.cls-14{fill:#e57620;}.cls-15{fill:#fbe3bf;mix-blend-mode:screen;}.cls-15,.cls-18{opacity:0.32;}.cls-16{fill:#facf95;}.cls-17{fill:#d28546;opacity:0.35;}.cls-18{fill:#b8773d;}</style></defs><title>burger -svg</title><g class="cls-1"><g id="poster"><path class="cls-2" d="M126,143.72s1.67,15.74,5.42,19.16,69,14.69,110.38,2.29a4.54,4.54,0,0,0,2.79-2.43c2-4.23,6.59-14.67,5.67-19.68C249,136.69,222.15,157,126,143.72Z"/><path class="cls-3" d="M144.61,155.72c5.67,2.44,10.06-2,15,.45s6.08,3.26,10.21.47c.75-.51,1.85,0,2.57.2,5.75,1.66,8.94,2.58,15.72.32a6.26,6.26,0,0,1,4.25-.31c4.35,1.09,8.7.06,12.65-1.88a1.76,1.76,0,0,1,.9-.21c3.39.08,4.62,2.18,8.05,2.9,5.23,1.1,10,2.08,13.2-3.16a3.94,3.94,0,0,1,2.26-1.4c5.11-1.27,6.74,4.26,12-.7,2.7-2.57,4.9-.17,7.18.38,1.21-3.63,2.05-7.3,1.61-9.72-1.17-6.37-28.06,13.9-124.26.66a90.19,90.19,0,0,0,2.31,12.5C132.82,160,139.82,153.66,144.61,155.72Z"/><path class="cls-4" d="M206.71,164.48c-5.94-3.57-14-9-17.39-15.52a429.77,429.77,0,0,1-60.27-3.84S130.59,158,134,160.74c2.7,2.24,42.06,8.86,76.67,5.85Q208.62,165.62,206.71,164.48Z"/><path class="cls-5" d="M180.21,113.22s-51.26,4.57-53.76,10.14-1.29,16.61,2.65,19.76,55.64,4.27,64.09,5c32.43,3,52.23-8.15,53.56-8.32s8.75-13.68.56-22.52C239.69,109.1,189.62,114,180.21,113.22Z"/><path class="cls-6" d="M193.76,138.16c-5.74-3.64-11.51-7.54-16-12.72-2.92-3.39-5.1-7.39-7.47-11.22-10.66,1.16-27.39,3.26-36.84,5.81-.58,10.9,2.94,19.89,12.18,26,17.12,1.71,41.91,2.78,47.52,2.11,2.51-.29,8.15-1.14,14.88-2.18A113.38,113.38,0,0,1,193.76,138.16Z"/><path class="cls-7" d="M163.29,123.62c8.37,0,15.82,2.42,24,4,6.66,1.3,13.35,2.49,19.75,4.81,5.18,1.87,16,10.05,19.77,4.26,2.85-4.41,7.77-6.3,12-8.93,2.57-1.59,7.33-4.12,11.68-4.89a13.75,13.75,0,0,0-3.16-5.56c-7.62-8.22-57.69-3.34-67.1-4.1,0,0-51.26,4.57-53.76,10.14a16.3,16.3,0,0,0-1.17,4.83C137.68,124.38,150.1,123.67,163.29,123.62Z"/><path class="cls-8" d="M126,142.61s6.49-2.94,10.37-3.62,14.74,3.14,25.39,1.53,9.91,4.9,22.26,2.66,15.63,2.6,19.64,1.37,15.59,0,18.11.69,16.22-7.51,21-6.35,9.58-3,10.64-.95,3,6.71-3.74,8-9.93,3.68-12.88,2.28-19.41,7.36-21.45,4.66-9-2.55-15.1-1.82-8.36-1.31-15.69.05-17.57-1.81-20.78-.29-13.22,2.65-15.7.38-11-3.82-13.2-2.65S126.27,144.17,126,142.61Z"/><path class="cls-9" d="M132.56,138.65c0-.19-.17-.32.16-.22a7.14,7.14,0,0,1,1.76-.94l0-.2c.84-.22,1.61-.79,2.41-1a.88.88,0,0,1,0-.17,44.15,44.15,0,0,0,5.44-.6c1.8.14,4.21,1.58,2.77,3.51-.66.88-1.78,1-1.66,2.35a3.56,3.56,0,0,0,1.84,2.34,20.26,20.26,0,0,0,7.45.51c1.93-.16,5.94-.37,6.11-3,.2-.75-1-1.25-1.09-2a2.41,2.41,0,0,1,1.22-2.23,12.84,12.84,0,0,0,3.22-.58c1.23.26,2.93-.19,4.22-.22a28.76,28.76,0,0,1,3.72.42c.77.4,1.58,1,2.36,1.31.62.74,1.66,1.9,1.07,3.06-.34.68-1.27.73-1.84,1.13a9.64,9.64,0,0,0-1.53,1.62,2.66,2.66,0,0,0,1.12,1.63,1.38,1.38,0,0,1,.65.31c2.84-.23,5.74.94,8.53.41a1.4,1.4,0,0,0,1.26-.12,6.88,6.88,0,0,0,2.08,0,.75.75,0,0,0,0-.21.66.66,0,0,0,.33.07.21.21,0,0,0-.06-.21c1.84-.74-1.71-2.27-2.21-2.78-1.74-1.8.93-2.78,2.56-3,3.87-.6,9.51-.74,12.89,1.73a2.78,2.78,0,0,1-2.13,3.18c-.32.37-1.07.87-1.48,1.37,0,.1,0,.49,0,.64a3.78,3.78,0,0,0,1,.52c.79.61,2.3.35,3.08.34a1.67,1.67,0,0,0,.44,0,4.68,4.68,0,0,0,1.24.08,1.5,1.5,0,0,1,0-.2c.59,0,1.66-.3,1.65-1.14,1.14-1.5-1.55-4.2,1.77-4.3,1.88-.05,4.44.94,5.69-.82,1.33-.37,2.25-.83,3.55-.32,1.77,2.49-.47,3.62-2.13,5.46,0,0-.09.13-.16.2,0,.26,0,.52.06.79.08.11.2.19.28.31a.47.47,0,0,0-.06-.15c.55.72,2.78,1.24,3.36.83,2.24,1.06,4.21-2.5,5.39-4a15.44,15.44,0,0,1,2.61-2.85c1.13-.85,2.18-.5,3.21-1,1.81.57,3,.92,4.31,2.44.91,1.08,1.47,3.19,3.19,2.84,5.4,1.08,7.36-7.85,11.57-9.77a2.3,2.3,0,0,1,3.15.78c.63,1,.24,2.29.84,3.27a2,2,0,0,0,2.94.51c1.07-.76.9-2.16,1.65-3.08a3.18,3.18,0,0,1,5.74,2.09c0,2-2.95,6-4.75,6.46-.15,1-2.78,3-3.9,3.32-2.16.56-3.6-1.1-3.75-3-.13-1.63.32-4.14-1.42-4.83-1.37-.54-3.55,1-3.55,2.37-.63,1-.65,2.8-1,4.08a10.9,10.9,0,0,1-1.5,3.54c-.24.19-.26.19-.33.32-3.35,1.44-6.89-.95-8-4.55-1.13-1.14-3.12-3.81-4.05-.54a11.33,11.33,0,0,0,0,3.39c0,1-.46,2.32-.28,3.23-1.39,2.2-3,2.83-5.81,3s-5.66-.95-8.15-2.2c-2-1-3.72-1.73-3.09-4.28.18-.74.85-2.16.47-3a2.1,2.1,0,0,0-2.74-.86c-2.77-.12-2.25,3.31-2.86,5.14-.89,2.64-3.19,3.62-5.84,3.81-1.86.13-7.69.09-7.53-2.66.07-1.21,1.56-1.94,1.78-3.09.26-1.41-.93-2.44-2.11-3-.9-.43-4.36-.88-3.54,1,0,.58.54,1.28.7,2a15.28,15.28,0,0,0,.24,2.11c-.66.69-.71,1.87-1.09,2.58a5.65,5.65,0,0,1-2.17,2.17,2.93,2.93,0,0,0-.67.21c-3.39-.26-6.27-.24-9.4-2a8.86,8.86,0,0,1-2.74-1.89c-.78-1.11-.16-2.43-.73-3.62-1-2-5.71-3.24-5.11.14.3,1.65,1.58,2.34,1.5,4.2a3.1,3.1,0,0,1-1.41,2.92.12.12,0,0,0,0,.15c-6.15,1.74-3-7.28-7.44-8.16-1.4-.28-4.63.06-5.54,1.31-1.39,1.91,1.92,3.16,0,5.13l-.51.05c-2.7.58-7-.51-7.85-3.62-.33-1.22.64-2.53.18-3.62a4.36,4.36,0,0,0-2.79-1.78,2.52,2.52,0,0,0-2.61.18c-1.16.77-.88,1.49-.31,2.61,1.36,2.67,1.66,4.2-.27,6.71-2.11.49-4.95.59-6.84-.8-1.53-1.12-1.88-4-2.43-5.63-.74-1.12-3.72-.92-4.85-.71-5.3-.65-6.64-8.46-.46-8.2,2.34.1,4.27,1.72,6.27,2.92,1.53.92,4.93,2.29,5.46-.56.42-2.25-2.26-2-2.85-3.57C132.6,138.25,132.31,138.81,132.56,138.65Z"/><path class="cls-10" d="M141.12,108.48s-17.41,5.2-22.81,13.36l1.85,2.86s28.68-6.75,50.56-3.24,45.64,9.58,52.63,12.65c0,0,15.71-18.2,36.12-16.81l.09-3.43s-7.46-5.2-16.36-5.86S174.86,114.78,141.12,108.48Z"/><path class="cls-11" d="M228.6,125.63c-3.41,2.26-6.28,4.32-6.28,4.32-23-6.29-40.25-11.47-56.72-11.88-26.81-.67-47.23,3.68-47.29,3.77l1.85,2.86s28.68-6.75,50.56-3.24,45.64,9.58,52.63,12.65c0,0,15.71-18.2,36.12-16.81l.09-3.43C243,114.12,233.18,122.59,228.6,125.63Z"/><path class="cls-12" d="M243.93,99.4s2.91,1.44,3.18,3.88-.56,7.35-1.85,8.25c-2.74,1.9-65.12,7.07-113.63.62,0,0-1.56-.85-2.21-10.26,0,0,14.08,5.62,65,5C234.73,106.35,243.93,99.4,243.93,99.4Z"/><path class="cls-13" d="M191,111.91c10.43.15,21-1.24,31.37-2.18,9.26-.84,17.1-1.75,24.71-6.63-.39-2.33-3.14-3.7-3.14-3.7s-9.2,6.95-49.53,7.46c-50.9.65-65-5-65-5a46.38,46.38,0,0,0,1,7.4C150,114.12,171,111.62,191,111.91Z"/><path class="cls-2" d="M189.6,58.82a127.18,127.18,0,0,0-32.36,3.82c-7.1,1.75-14.19,4.19-20.41,8.1a31.75,31.75,0,0,0-12.68,14.9,20,20,0,0,0,2.8,17.77c6.27,9,105.22,7.68,119.37-2,0,0,5.23-5.86,2.05-15.56-1.67-5.09-6.57-9.93-10.8-13A70.65,70.65,0,0,0,215.2,62.47,100.68,100.68,0,0,0,189.6,58.82Z"/><path class="cls-14" d="M225.38,94c-14.14,3.92-27.94,2.2-42.39,2.1-14.86-.1-30.19,1-44.82-2.14-6.5-1.42-11.38-3.48-14.2-7.81a20.1,20.1,0,0,0,3,17.23c6.27,9,105.22,7.68,119.37-2,0,0,4.92-5.54,2.27-14.76C241.63,90.62,233.79,91.7,225.38,94Z"/><path class="cls-15" d="M191.92,63.3c-3.14-1.06-11.85-2.1-12.86,2.63-.86,4.06,6.87,5.06,9.42,5.24,2.9.21,7.51-.31,8-3.28C196.76,65.6,194.51,64.17,191.92,63.3Z"/><path class="cls-15" d="M215.58,73.39c-7.28-.87-15.4-.59-20.88,3.84-4.45,3.59-.28,6.34,3.6,7.65a47.9,47.9,0,0,0,18.92,2.53c4.19-.39,11.78-1.06,11.11-6.71a6.42,6.42,0,0,0-2.83-4C223.51,75.2,218,73.68,215.58,73.39Z"/><path class="cls-16" d="M163.91,72c.48,1-.54,2.48-2.27,3.3s-3.52.68-4-.32.54-2.47,2.27-3.3S163.44,71,163.91,72Z"/><path class="cls-16" d="M191.71,87.62c.47,1-.54,2.48-2.27,3.3s-3.52.68-4-.32.54-2.48,2.27-3.3S191.23,86.62,191.71,87.62Z"/><path class="cls-16" d="M215.18,86c.48,1-.54,2.47-2.27,3.3s-3.52.68-4-.32.54-2.48,2.27-3.3S214.71,85,215.18,86Z"/><path class="cls-16" d="M147.18,78.06c.47,1-.54,2.47-2.27,3.3s-3.52.68-4-.32.54-2.48,2.27-3.3S146.7,77.06,147.18,78.06Z"/><path class="cls-16" d="M238.23,79.38c.47,1-.54,2.47-2.27,3.29s-3.52.68-4-.32.54-2.47,2.27-3.29S237.76,78.38,238.23,79.38Z"/><path class="cls-16" d="M199.21,82.43c-.5,1-2.29,1.07-4,.2s-2.67-2.38-2.17-3.36,2.29-1.08,4-.2S199.72,81.45,199.21,82.43Z"/><path class="cls-16" d="M220,76.28c.2,1.09-1.17,2.25-3.05,2.59s-3.57-.27-3.77-1.35,1.17-2.25,3.06-2.59S219.78,75.19,220,76.28Z"/><path class="cls-16" d="M163.52,88.84c-.5,1-2.29,1.07-4,.2s-2.67-2.38-2.17-3.36,2.29-1.08,4-.21S164,87.85,163.52,88.84Z"/><path class="cls-16" d="M179.85,82.8c-.47.83-2.2.75-3.88-.19s-2.65-2.38-2.18-3.22,2.2-.75,3.88.19S180.32,82,179.85,82.8Z"/><path class="cls-16" d="M143.19,89.13c-.26.93-2,1.26-3.81.76s-3.15-1.67-2.9-2.59,2-1.26,3.81-.76S143.44,88.21,143.19,89.13Z"/><path class="cls-16" d="M207.56,69.2c-.5.9-2.21.89-3.83,0s-2.51-2.37-2-3.26,2.22-.89,3.83,0S208.07,68.31,207.56,69.2Z"/><path class="cls-16" d="M229.63,72.78c-.5.9-2.22.89-3.83,0s-2.51-2.37-2-3.27,2.22-.89,3.83,0S230.13,71.89,229.63,72.78Z"/><path class="cls-16" d="M173,67c-.5.9-2.22.89-3.83,0s-2.51-2.36-2-3.26,2.22-.89,3.83,0S173.52,66.13,173,67Z"/><path class="cls-17" d="M247.64,84.05c-14,6.61-32.14,8.63-46.6,9.56-10.45.67-21.86,1.42-32-1.79s-17.15-10.19-15.63-21.3a16.82,16.82,0,0,1,3.27-7.74,68.5,68.5,0,0,0-19.86,8,31.75,31.75,0,0,0-12.68,14.9,20,20,0,0,0,2.8,17.77c6.27,9,105.22,7.68,119.37-2,0,0,5.23-5.86,2.05-15.56A15.87,15.87,0,0,0,247.64,84.05Z"/><path class="cls-18" d="M187.55,96.6c-1.78,0-3.56-.09-5.35-.11-14.38-.12-29.2.8-43.37-1.95-6.3-1.23-11-3-13.76-6.69A15.38,15.38,0,0,0,128,102.53c3.43,4.31,35.43,5.93,65.12,5A45.43,45.43,0,0,1,187.55,96.6Z"/></g></g></svg>