<svg xmlns="http://www.w3.org/2000/svg" xmlns:xlink="http://www.w3.org/1999/xlink" viewBox="0 0 372 215"><defs><style>.cls-1{isolation:isolate;}.cls-2{fill:#f59745;}.cls-3{fill:#79ae27;}.cls-4,.cls-6{fill:#9dca29;}.cls-5{fill:#7fbc00;}.cls-6{opacity:0.65;}.cls-20,.cls-6{mix-blend-mode:multiply;}.cls-7{fill:#f59d16;}.cls-8,.cls-9{fill:#df762f;}.cls-12,.cls-9{opacity:0.32;}.cls-10{fill:#3c8400;}.cls-11{fill:#f67466;}.cls-12{fill:#fd9b98;mix-blend-mode:screen;}.cls-13{fill:#d84e43;}.cls-14{fill:url(#linear-gradient);}.cls-15{fill:url(#linear-gradient-2);}.cls-16{fill:url(#linear-gradient-3);}.cls-17{fill:url(#linear-gradient-4);}.cls-18{fill:url(#linear-gradient-5);}.cls-19{fill:#fdaca8;opacity:0.75;mix-blend-mode:overlay;}.cls-20{fill:#db7466;opacity:0.55;}.cls-21{fill:#fdde2a;}.cls-22{fill:#ffff65;}</style><linearGradient id="linear-gradient" x1="218.6" y1="60.97" x2="223.31" y2="64.14" gradientTransform="matrix(0.95, -0.32, 0.32, 0.95, -84.82, 145.34)" gradientUnits="userSpaceOnUse"><stop offset="0.19" stop-color="#bf3d31"/><stop offset="1" stop-color="#e85a4d"/></linearGradient><linearGradient id="linear-gradient-2" x1="236.57" y1="64.54" x2="242.03" y2="66.03" xlink:href="#linear-gradient"/><linearGradient id="linear-gradient-3" x1="255.46" y1="64.78" x2="260.76" y2="64.78" xlink:href="#linear-gradient"/><linearGradient id="linear-gradient-4" x1="277.36" y1="59.9" x2="284.48" y2="56.71" xlink:href="#linear-gradient"/><linearGradient id="linear-gradient-5" x1="298.86" y1="47.53" x2="303.83" y2="42.56" xlink:href="#linear-gradient"/></defs><title>sandwish 1</title><g class="cls-1"><g id="poster"><path class="cls-2" d="M196.73,121.21s47.2-41.86,43.37-53.57c-1.8-5.49-4.71-7.41-7.84-8.28-4.41-1.23-10.21,1.46-19,8.72-14.94,12.41-42.59,32-66.63,45.36s-37.23,25.13-23.74,33.37S178.05,137.28,196.73,121.21Z"/><path class="cls-3" d="M226.34,60.91c-3.77-1.66-8,.79-11.38,3.13l-8.19,5.68-2.83,2a8.4,8.4,0,0,1-5.73,5.79,9.73,9.73,0,0,1-3.35.51l-3.63,2.51a9.63,9.63,0,0,1-1.56,2.9A5.51,5.51,0,0,1,186,88.61c-1.72.62-3-.43-4.22-1.56l-1.43,1-8.11,5.66a8.38,8.38,0,0,1-6.05,7.7,8.86,8.86,0,0,1-5.31.21l-3.26,2.27-.68.49a8.37,8.37,0,0,1-5.9,6.44,10.63,10.63,0,0,1-1.29.33c-1.41,2-2.78,3.94-4.87,5-3.15,1.63-7,.76-10.43,1.6-3.2.79-5.72,2.95-7.89,5.51,1.46,4.19,2.47,8.28,1.17,12.82a21.69,21.69,0,0,1-1.83,4.4,7.57,7.57,0,0,0,1.33.17c2.91.12,5.7-1,8.32-2.28,14.73-7,31.72-11.2,44.53-21.29s22-26.43,37.76-30.66c5.37-1.44,11.73-2.85,14-8,1.34-3.06.7-6.6-.22-9.81S229.29,62.22,226.34,60.91Z"/><path class="cls-4" d="M232,68.56c-1-.92-2.64.49-3.93,0s-1.27-2.29-.63-3.46,1.7-2.22,1.8-3.56c.17-2.28-2.75-3.78-5-3.12s-3.72,2.61-5.08,4.46q-2.69,3.63-5.38,7.27a5.7,5.7,0,1,0-11.38.54c.2,2.57,2.12,5,1.42,7.5a3.93,3.93,0,0,1-5.48,2.25c2.14-.92,1.44-4.57-.74-5.39s-4.62.45-6.23,2.14c-1.45,1.52-2.54,3.69-1.91,5.7s3.67,3.06,4.94,1.38a14.78,14.78,0,0,1-12.5,9.36l.66-8a12.75,12.75,0,0,0-11.41,11.39c1-2,4.37-1.56,5.24.45s-.57,4.51-2.65,5.22a5,5,0,0,1-4.57-.76c-.93-.73-1.57-1.76-2.45-2.54a6.67,6.67,0,0,0-8.21-.2,7.77,7.77,0,0,0-2.63,8c.54-1.64,3.47-.85,3.56.87s-1.8,3-3.53,2.93a9.45,9.45,0,0,1-4.67-2l-1.31-.89c-2.17-1.47-5.38-2.84-7.1-.86,1.31.25,1.82,2.06,1.17,3.23a4.65,4.65,0,0,1-3.33,2,29.11,29.11,0,0,0-3.95.68c-2,.68-3.54,2.32-5,3.9-1.05,1.16.85,4.78-.19,5.94-2.16,2.38-6.5,3-8.61,5.32a9.89,9.89,0,0,0,.33,5.3c.85,2.54-1.13,4-1.88,6.1-1.91,5.37,7,5.94,10.09,7.2,1.09.45,1.88.9,2.59,1.18,4.85-4.54,2.28-14,7.16-18.74,2.88-2.82,7.37-3,11.06-4.59,4.73-2.08,12.43.16,16.35-3.2,7.7-6.61,18-9.17,27.05-13.69s12.48-17.59,20.3-24L230.9,71.68C231.87,70.89,232.89,69.41,232,68.56Z"/><path class="cls-4" d="M232,68.56c-1-.92-2.64.49-3.93,0s-1.27-2.29-.63-3.46,1.7-2.22,1.8-3.56c.17-2.28-2.75-3.78-5-3.12s-3.72,2.61-5.08,4.46q-2.69,3.63-5.38,7.27a5.7,5.7,0,1,0-11.38.54c.2,2.57,2.12,5,1.42,7.5a3.93,3.93,0,0,1-5.48,2.25c2.14-.92,1.44-4.57-.74-5.39s-4.62.45-6.23,2.14c-1.45,1.52-2.54,3.69-1.91,5.7s3.67,3.06,4.94,1.38a14.78,14.78,0,0,1-12.5,9.36l.66-8a12.75,12.75,0,0,0-11.41,11.39c1-2,4.37-1.56,5.24.45s-.57,4.51-2.65,5.22a5,5,0,0,1-4.57-.76c-.93-.73-1.57-1.76-2.45-2.54a6.67,6.67,0,0,0-8.21-.2,7.77,7.77,0,0,0-2.63,8c.54-1.64,3.47-.85,3.56.87s-1.8,3-3.53,2.93a9.45,9.45,0,0,1-4.67-2l-1.31-.89c-2.17-1.47-5.38-2.84-7.1-.86,1.31.25,1.82,2.06,1.17,3.23a4.65,4.65,0,0,1-3.33,2,29.11,29.11,0,0,0-3.95.68c-2,.68-3.54,2.32-5,3.9-1.05,1.16.85,4.78-.19,5.94-2.16,2.38-6.5,3-8.61,5.32a9.89,9.89,0,0,0,.33,5.3c.85,2.54-1.13,4-1.88,6.1-1.91,5.37,7,5.94,10.09,7.2,1.09.45,1.88.9,2.59,1.18,4.85-4.54,2.28-14,7.16-18.74,2.88-2.82,7.37-3,11.06-4.59,4.73-2.08,12.43.16,16.35-3.2,7.7-6.61,18-9.17,27.05-13.69s12.48-17.59,20.3-24L230.9,71.68C231.87,70.89,232.89,69.41,232,68.56Z"/><path class="cls-4" d="M230.12,68.4a15.82,15.82,0,0,0-.32,4.18l1.1-.9c1-.79,2-2.27,1.07-3.12C231.47,68.1,230.82,68.22,230.12,68.4Z"/><path class="cls-5" d="M225.21,76.07a18.17,18.17,0,0,1-.39-7.34,37.25,37.25,0,0,1,1.11-4.52c1.22-2.24-.13-3.13-4.05-2.64-1.52,3.14-2.47,7.05-5.58,9-2.53,1.58-5.48-.48-6.69-2.71-1.55-2.84-3.66-.14-4.9,1.62-1,1.34.63,5.15.75,6.83.45,6.63-10.47,8.51-9,2.25,1.08-4.52-6.91,1.1-4.81,2.31s3.78,2.38,4,4.91c.48,4.5-8.11,10.45-11.83,11.12-2.25.4-3.67-2-3.41-3.94a36.64,36.64,0,0,1,1.13-4.23c.07-.23.12-.46.18-.68-.36.15-.71.3-1.06.47a26,26,0,0,0-5.78,4.11,3.08,3.08,0,0,1-1.49,1.42,11.38,11.38,0,0,1,1.31.06c2.63.87,3.79,2.4,3.49,5.21s-3.54,4.28-5.93,4.7c-2.94.52-5.76-1.9-8.19-3.8a11.22,11.22,0,0,0-4.2,2.07,19.21,19.21,0,0,0-2.37,1.77l.25.11c2.4.66,5.33,2.47,4.7,5.45-.54,2.58-3.93,4.18-6.38,3.59s-5.89-4.38-8.78-5.08a2.43,2.43,0,0,1,0,1.52,4.6,4.6,0,0,1-3.07,3.49c-1.95.57-5.57.08-7.12,1.34s-1.12,5.77-2,7.77-3.34,3-5.17,3.7c-2.44.92-5,1.42-4.11,5.19a9.34,9.34,0,0,1,.4,3.36c-.12,2.85-3.75,4.54.38,6.42a92.37,92.37,0,0,0,9.71,3.42c1.74-4.85,1.07-11.31,4.84-15,2.88-2.82,7.37-3,11.06-4.59,4.73-2.08,12.43.16,16.35-3.2,7.7-6.61,18-9.17,27.05-13.69s12.48-17.59,20.3-24q4.62-3.81,9.26-7.6C225.26,76.21,225.23,76.15,225.21,76.07Z"/><path class="cls-6" d="M232.05,70.07a52.63,52.63,0,0,1-5.31-.77c-2.82-.37-6.52,1.6-8.86,3-11.71,6.87-20.88,17.72-31,26.6-9.1,8-19.07,14.08-30.8,17.24-6.79,1.83-20,4-21.53,12.35-.6,3.25-5.61,2.2-5-1.05a12.27,12.27,0,0,1,.5-1.85c-2,3.23-1.27,8.39-.22,11.79.66,2.16,2.29,4.33,2.4,6.63a4.9,4.9,0,0,1-.72,2.93h0c1.09.45,1.88.9,2.59,1.18,4.85-4.54,2.28-14,7.16-18.74,2.88-2.82,7.37-3,11.06-4.59,4.73-2.08,12.43.16,16.35-3.2,7.7-6.61,18-9.17,27.05-13.69s12.48-17.59,20.3-24L230.9,71.68a4.45,4.45,0,0,0,1.27-1.62Z"/><path class="cls-7" d="M155.48,135.94s-24.84,11.19-25.23,17.58,11.36,16.74,42,7.36S237.06,130.7,251,100.12c5.72-12.59,5.29-31.72-7.45-30.75-16.35,1.26-13.65,35.68-51.71,52.56S155.48,135.94,155.48,135.94Z"/><path class="cls-8" d="M135.42,147.25c1.72,2.57-.24,6.43.07,9.41a27.06,27.06,0,0,0,6.43,2.67c7.59,1.63,15.84-.23,23.51-1.45,4.66-1.2,9.13-2.83,12.9-6.13,2.87-2.53,5.36-4.57,9.15-5.4,4.3-.94,9.51.09,12.63-4,1.32-1.72,2.45-5,4.51-6.11,2.29-1.21,4.87-1.36,7-2.88,3.29-2.3,5.88-5.49,9.21-7.71a37.26,37.26,0,0,0,9.06-8c2.25-2.86,5.28-5.83,6.75-9.17,1.21-2.74,1.94-5.77,3.36-8.41,3.43-6.34,9-9.57,5.4-17.52-2.16-4.8-7.95-4.19-10.56-8.15-8.51,10.42-13.35,34.33-43.1,47.52-38.06,16.88-36.31,14-36.31,14S142.81,141.65,135.42,147.25Z"/><path class="cls-9" d="M249.75,73.94c1.88,10.21,1.46,22-6.93,29.13-2.95,2.51-6.22,5.19-7.93,8.71-1.3,2.69-2.21,5.56-4.22,7.86a47.27,47.27,0,0,1-5.48,5.25,52.94,52.94,0,0,1-8.92,7.66,123.59,123.59,0,0,1-11.58,6.58c-4.55,2.46-8.72,5.47-13.16,8.12-4.62,2.76-9.52,4.16-14.62,5.74-4.46,1.38-9.37,5.1-14,5.29-4.84.2-9.88-.18-14.72-.41-4.23-.21-9.12-.18-13.11-1.7,3.82,4.88,15.73,9.13,38.42,2.14,28.44-8.75,60.72-27.85,75.17-56.47C253.33,92.53,254.86,79.3,249.75,73.94Z"/><path class="cls-10" d="M240.22,82.18s-3.82-7.76-8.5-.29-7.63,17.58-24.91,25.44-29.73,22.58-46.53,25.75-24.53,3.31-23.8,7.33,7.45,10.4,7.87,12.62,6.36,1.91,9.56.52,14-1.33,17.77-4a166.92,166.92,0,0,1,20.17-10.92c7-3.15,14.14-10.25,18-11.52s16.08-11.14,17-13.43,7.65-15.58,8.27-17.46,7.3-14.6,6.53-14.55A3.2,3.2,0,0,0,240.22,82.18Z"/><path class="cls-11" d="M124.74,137.1a13.36,13.36,0,0,1,2.25-8.52,12.94,12.94,0,0,1,7-4.62c5.75-1.81,11.94-2,18-3.51,7.91-1.93,15.42-3,23.21-6.83,6-2.9,14.83-7.46,19.16-13.53,3.84-5.41,16.8-29.61,24.35-32.81,7.7-3.26,20.52-4.45,18.58,15-1.88,18.87-25.78,41.93-44.95,52.33-18.13,9.82-42.07,17.23-52.45,14.78C129.64,147,125.51,143.48,124.74,137.1Z"/><path class="cls-12" d="M181.05,114.25a89.81,89.81,0,0,1-21.72,8c-3.26.67-6.5.88-9.72,1.31l-8.81,1.19a34.27,34.27,0,0,0-4,.8,35.08,35.08,0,0,0-3.85,1.47c-2.64,1.47-3.75,4-2.19,6.66,2.6,4.42,11.66,1.83,16.33,1.45,6.87-.56,17.1-3.84,24-6.32,7.42-2.69,22.87-8.61,33.45-19.08,5.09-5,9.34-10.65,13.79-16.4,2.87-3.7,5.4-7.66,5.31-11.91-.06-2.56-1.43-6.25-4.92-6.27s-5.74,3.43-7.1,5.76C203.15,95.38,195.79,106.92,181.05,114.25Z"/><path class="cls-13" d="M225.75,87.26c-2.2,6.48-4.57,12.07-8.63,17.66-8.53,11.73-18.23,21.11-29.86,27.9-6.14,3.59-13.89,6.16-22.55,8.36a68.4,68.4,0,0,1-18.47,2.29,27.63,27.63,0,0,1-15.59-5.55c-1.43-1-2.75-3.35-4.15-4.53a9.26,9.26,0,0,0-.19,2.7c.55,5.66,4.27,9.27,14,11.08,10,1.85,32.65-3.64,51.12-13.66,20.07-10.88,40.52-35.34,43-50.08v-.08c.46-2.77-2.22-4.85-4.47-3.26C227.94,81.57,226.35,85.52,225.75,87.26Z"/><path class="cls-14" d="M146.62,125.51S140,130.85,143.41,144C143.41,144,149.15,139.31,146.62,125.51Z"/><path class="cls-15" d="M163.54,121.79s-6.66,6.78-.24,19.21C163.3,141,167.88,130.94,163.54,121.79Z"/><path class="cls-16" d="M179.34,115.32s-6.41,7.16,3.64,18.91C183,134.23,185.62,126.18,179.34,115.32Z"/><path class="cls-17" d="M197.44,101.7s-3.88,12.61,7,18.29C204.44,120,203.56,107.8,197.44,101.7Z"/><path class="cls-18" d="M210.15,85.15S211.82,96.9,220.37,100C220.37,100,218.93,88,210.15,85.15Z"/><path class="cls-19" d="M141.21,130.56c.28,1.78-1.37,3.5-3.66,3.83s-4.37-.82-4.65-2.58,1.32-3.48,3.61-3.84S140.92,128.78,141.21,130.56Z"/><path class="cls-19" d="M174,123.09a3.23,3.23,0,0,1-2.32,3.72c-1.71.62-3.45,0-3.89-1.48a3.22,3.22,0,0,1,2.28-3.72C171.83,121,173.59,121.64,174,123.09Z"/><path class="cls-19" d="M193.94,112.91c.76,1.75-.63,4.2-3.07,5.45s-5,.84-5.73-.89.59-4.16,3-5.43S193.19,111.15,193.94,112.91Z"/><path class="cls-19" d="M224.55,74.48c1.23,1.16.92,3.67-.69,5.6s-3.86,2.54-5.07,1.39-.92-3.64.66-5.57S223.32,73.32,224.55,74.48Z"/><path class="cls-20" d="M226.16,101.51c-1.11.24-2.21.53-3.3.85a58.18,58.18,0,0,0-21.58,11.81c-8.05,7-17.57,11.84-26.48,15.31-13.08,5.1-27.25,8.26-40.47,6.08a33.82,33.82,0,0,1-9.2-2.85,12.25,12.25,0,0,0-.39,4.39c.77,6.38,4.9,9.93,15.08,12.33,10.38,2.45,34.32-5,52.45-14.78,13.11-7.11,28.32-20.05,37.36-33.69A31.31,31.31,0,0,0,226.16,101.51Z"/><path class="cls-3" d="M229,105.79a20.65,20.65,0,0,1-3.54.91c-1.17.34-2.37,1.18-2.46,2.4-.16,2.15,3.16,3.47,2.8,5.6a2.9,2.9,0,0,1-2.58,2,24.93,24.93,0,0,0-3.47.44c-1.83.61-3,2.37-3.81,4.12s-1.45,3.63-2.81,5-3.72,2-5.18.74-1.33-3.88-2.84-5.18-3.61-.73-4.86.56a8,8,0,0,0-1.87,5,35.63,35.63,0,0,1-.51,5.37c-1.39,5.61-8.23,8.85-13.73,7.09a44.37,44.37,0,0,0-4.65-1.65c-1.62-.32-3.54,0-4.47,1.35s-.57,3.27-.84,4.93a8.14,8.14,0,0,1-4.51,5.6,24,24,0,0,1-7.14,2,9.92,9.92,0,0,0-1.68-4.36c-1-1.22-2.86-1.88-4.19-1s-1.5,2.36-2,3.7a9,9,0,0,1-8.81,5.55,24.93,24.93,0,0,0,14,.08l-.84-1.52c16.54-6.81,32.26-15.42,47.94-24a70.22,70.22,0,0,0,8.74-5.35,41.52,41.52,0,0,0,5.61-5.16,57.27,57.27,0,0,0,3.63-4.45c1.3-1.75,2.52-3.56,3.71-5.39s3.4-1.89,4.62-3.86c1.58-2.54,2.22-7.11,3.76-9.68,1.12-1.88,2.25-3.76,3.37-5.65a13.62,13.62,0,0,0,2.25-5.43c.2-2-.68-4.19-2.53-4.9,1.1,5.69-6.69,10.89-9.61,15.9-1,1.76,2.7,3.92,1.67,5.68A8.51,8.51,0,0,1,229,105.79Z"/><path class="cls-4" d="M140.74,159a11.19,11.19,0,0,1,1.38-12.34c1.42-1.64,3.81-2.87,5.73-1.87a4.29,4.29,0,0,1,1.86,4.58,12.54,12.54,0,0,1-2.3,4.71l4.15-4.53c.2-.22.4-.45.61-.67l2.34-2.56a15.92,15.92,0,0,1,4.89-4.08c1.94-.88,4.47-.85,6,.66s1.22,4.6-.79,5.31a7.07,7.07,0,0,0,9.64-3.45c-2.4-.15-4-2.88-3.69-5.27s2.09-4.34,4-5.76c2.45-1.8,5.62-3,8.52-2.12s4.89,4.64,3.2,7.16a16.55,16.55,0,0,0,12.52-8.23c-1.47,2-5.12.66-5.78-1.77s.71-4.94,2.31-6.88a24.89,24.89,0,0,1,7.06-5.85c1.92-1.06,4.39-1.83,6.2-.59,1.58,1.07,2,3.32,1.42,5.14a13.76,13.76,0,0,1-3.07,4.76c2.86,1.48,6.47-.2,8.51-2.69,2.49-3,.24-10.47,3.9-9,6.32,2.51,3.81-1.8.8-3.77-1.45-.94.77-3.43,1.8-4.82a4.26,4.26,0,0,1,4.52-1.78,11.43,11.43,0,0,1,2.84,2c.94.68,2.34,1.07,3.22.3s.53-2.58-.42-3.5-2.25-1.43-3.2-2.34a4.88,4.88,0,0,1,3.06-8.4,5.23,5.23,0,0,0,7.66-7.09c-1-1.21-2.42-1.93-3.51-3s-1.75-3-.76-4.17a2.83,2.83,0,0,1,3.29-.52,8.3,8.3,0,0,1,2.69,2.32c1.44,1.65,2.94,3.44,3.2,5.62.47,3.85-3.07,7-6.54,8.71-2.45,1.21-5.45,2.64-5.71,5.36-.15,1.65.82,3.16,1.46,4.68s.85,3.56-.44,4.6-3.44.28-5.19-.11-4.31.59-3.82,2.32,3.13,1.43,4.28,2.75c1.38,1.58-.41,4.1-2.43,4.65s-4.22.1-6.2.78c-2.15.74-.32,5.37-1.56,7.28a14.22,14.22,0,0,1-6.25,4.88c-4,1.34-6.23-1.07-7.58-2.9a2.77,2.77,0,1,0-3.61-4.2,4.38,4.38,0,0,0-1,4.07c.27,1.44.87,2.81,1,4.27.37,3.78-2.55,7.27-6,8.8s-7.4,1.57-11.2,1.57a4.12,4.12,0,0,0-7.52-.92c2.25,1.31,2.3,4.78.78,6.9s-4.07,3.2-6.48,4.19a14.39,14.39,0,0,1-4.77,1.36,4.94,4.94,0,0,1-4.37-1.9c-.7-1-.81-2.35-1.31-3.5s-1.72-2.22-2.9-1.78-1.4,2.07-1,3.29,1.11,2.34,1.13,3.61a3.18,3.18,0,0,1-2.56,3.22C148.71,157.06,142.35,160.2,140.74,159Z"/><path class="cls-20" d="M145.5,138.18a3.6,3.6,0,0,1-3.4.42,8.62,8.62,0,0,0-3.51-.61c-1.17.19-2.27,1.47-1.74,2.54a2.81,2.81,0,0,0,1.52,1.12c2.22.92,4.47,1.75,6.76,2.47a9.13,9.13,0,0,0,3.92.6,3.38,3.38,0,0,0,2.95-2.34c.57-2.49-2.64-4.37-2.81-6.92.81-.68,2.1-.26,2.88.46a30.22,30.22,0,0,0,2.16,2.35c1.83,1.38,4.42.78,6.61.11s4.5-1.45,5.65-3.38c1.34-2.25.54-5.11-.29-7.59a2.3,2.3,0,0,1,2.59-.36c.86.35,1.6,1,2.45,1.35,2.57,1.15,5.53-.07,8-1.43a17.14,17.14,0,0,0,5.25-4A6.87,6.87,0,0,0,186,116.8c-.36-1.15-1.09-2.5-.32-3.42a2.06,2.06,0,0,1,2.68,0c.8.56,1.36,1.41,2.14,2a6,6,0,0,0,5.24.75,15.92,15.92,0,0,0,4.8-2.61,16.86,16.86,0,0,0,4.3-3.94,6.4,6.4,0,0,0,1.08-5.55c-.4-1.16-1.22-2.15-1.55-3.33s.13-2.76,1.34-3a3.43,3.43,0,0,1,2.25.86,10.3,10.3,0,0,0,15-12.67,4.23,4.23,0,0,1-.59-2.41c.33-1.6,2.57-1.9,4.09-1.29s2.86,1.79,4.49,1.85c.89,0,1.93-.45,2-1.34a1.73,1.73,0,0,0-.29-1c-.9-1.53-2.78-2.15-4.49-2.65a16.44,16.44,0,0,0-6.22-1,5.59,5.59,0,0,0-4.88,3.46c-1,3,1.74,6.19,1.32,9.36A5.22,5.22,0,0,1,212.06,95c-1.58-.43-2.85-1.57-4.27-2.36a7.53,7.53,0,0,0-5.95-.82,4.83,4.83,0,0,0-3.42,4.61c.12,1.85,1.48,3.36,2.16,5.08a7,7,0,0,1-8,9.46c-2.06-.42-3.82-1.73-5.77-2.53s-4.49-.92-5.88.66c-2.08,2.4.17,6.07-.07,9.23-.29,3.79-5.08,6.42-8.42,4.62-2.55-1.37-4.29-4.7-7.17-4.51s-4.11,3.59-4,6.36c.11,1.88.57,3.85-.15,5.59a4.49,4.49,0,0,1-4.88,2.61c-2-.41-3.48-2.16-5.19-3.35s-4.47-1.6-5.55.17C144.06,132.31,147.62,136.17,145.5,138.18Z"/><path class="cls-21" d="M144.72,135.85a3.57,3.57,0,0,1-3.4.42,8.57,8.57,0,0,0-3.5-.61c-1.18.19-2.28,1.47-1.74,2.54a2.69,2.69,0,0,0,1.52,1.12c2.21.93,4.47,1.75,6.75,2.47a9.19,9.19,0,0,0,3.93.61,3.4,3.4,0,0,0,2.94-2.34c.57-2.5-2.64-4.38-2.81-6.93.82-.68,2.1-.26,2.88.47s1.31,1.7,2.16,2.34c1.83,1.38,4.42.78,6.61.11s4.51-1.45,5.66-3.38c1.33-2.25.53-5.11-.3-7.58a2.28,2.28,0,0,1,2.59-.36c.87.35,1.6,1,2.45,1.35,2.57,1.14,5.54-.08,8-1.43a17,17,0,0,0,5.25-4,6.87,6.87,0,0,0,1.48-6.19c-.36-1.15-1.09-2.49-.32-3.42a2.07,2.07,0,0,1,2.68,0c.8.56,1.37,1.41,2.14,2a6,6,0,0,0,5.24.75,16.29,16.29,0,0,0,4.81-2.6,17.24,17.24,0,0,0,4.3-4,6.43,6.43,0,0,0,1.07-5.55c-.39-1.16-1.22-2.14-1.55-3.32s.13-2.77,1.34-3a3.47,3.47,0,0,1,2.25.86,10.29,10.29,0,0,0,15-12.67,4.23,4.23,0,0,1-.59-2.41c.33-1.6,2.58-1.9,4.09-1.28s2.86,1.78,4.49,1.84c.89,0,1.93-.45,2-1.34a1.78,1.78,0,0,0-.3-1c-.9-1.54-2.77-2.16-4.48-2.66a16.46,16.46,0,0,0-6.23-1c-2.1.22-4.24,1.45-4.88,3.46-1,3,1.74,6.19,1.32,9.36a5.22,5.22,0,0,1-6.32,4.11c-1.58-.43-2.84-1.57-4.27-2.36a7.61,7.61,0,0,0-5.95-.82,4.84,4.84,0,0,0-3.42,4.62c.12,1.85,1.49,3.35,2.16,5.08a7,7,0,0,1-8,9.45c-2.06-.42-3.82-1.73-5.77-2.52s-4.49-.93-5.87.66c-2.09,2.39.16,6.06-.08,9.23-.29,3.78-5.08,6.41-8.42,4.61-2.55-1.37-4.28-4.7-7.17-4.5s-4.11,3.58-4,6.35c.1,1.88.57,3.85-.16,5.6a4.49,4.49,0,0,1-4.87,2.6c-2-.41-3.49-2.16-5.19-3.35s-4.47-1.6-5.55.18C143.28,130,146.85,133.84,144.72,135.85Z"/><path class="cls-22" d="M163.35,125.67a6.5,6.5,0,0,1-1.72,4.62c-1.54,1.64-3.81,2.36-6,3-.5.16-1.08.39-1.23.9a1.1,1.1,0,0,0,.73,1.21,2.89,2.89,0,0,0,1.52.06,10.63,10.63,0,0,0,6-2.51c1.58-1.54,2.29-4.14,1.12-6C163.58,126.56,163.24,126.13,163.35,125.67Z"/><path class="cls-22" d="M148.48,136.18l-.52-1.11a3.09,3.09,0,0,1-1.06,2.57,3.64,3.64,0,0,1-1.67.44l-1,.09a2,2,0,0,0-1.27.91.58.58,0,0,0-.1.4c0,.21.28.33.49.41l1.75.69a7.21,7.21,0,0,0,1.58.48,2.43,2.43,0,0,0,1.59-.28,2.4,2.4,0,0,0,.95-2.21A7.29,7.29,0,0,0,148.48,136.18Z"/><path class="cls-22" d="M174.76,124.61a17.87,17.87,0,0,0,6.12-2.38,6.83,6.83,0,0,0,2.32-2.34,6.49,6.49,0,0,0-.25-5.83,9.83,9.83,0,0,1-4.47,6.91,7.45,7.45,0,0,1-3.55,1.46c-1.39.12-2.8-.35-4.17-.07a.8.8,0,0,0-.51.27.7.7,0,0,0,0,.63,2.53,2.53,0,0,0,1.95,1.5A6.39,6.39,0,0,0,174.76,124.61Z"/><path class="cls-22" d="M191.66,111.52c1.3.84,3,.39,4.46-.2a13.74,13.74,0,0,0,5.92-4.14,6.67,6.67,0,0,0,.93-6.88,11.6,11.6,0,0,1-3,5.88,13,13,0,0,1-3.05,2.78,6.16,6.16,0,0,1-3.94,1,4.48,4.48,0,0,0-1.09-.07.91.91,0,0,0-.8.64A1.06,1.06,0,0,0,191.66,111.52Z"/><path class="cls-22" d="M218.75,82.76a6.44,6.44,0,0,0,.39,2.89,7.12,7.12,0,0,1-3.22,7.42c-1.88,1.12-4.17,1.28-6.36,1.42a1.2,1.2,0,0,0,.52,1.57,3,3,0,0,0,1.79.27,15.18,15.18,0,0,0,3.54-.68,9.76,9.76,0,0,0,2.26-1,7.12,7.12,0,0,0,2.55-9.21A29,29,0,0,1,218.75,82.76Z"/><path class="cls-22" d="M230.54,80.48a.56.56,0,0,0,.12-.43c0-.49-.5-.81-.94-1a6.3,6.3,0,0,0-3.29-.53A3,3,0,0,0,227.67,80a5.66,5.66,0,0,0,1.79.7C229.84,80.74,230.31,80.79,230.54,80.48Z"/><path class="cls-22" d="M138.87,137a2.41,2.41,0,0,0-.65-.18.72.72,0,0,0-.46,1.34,3.12,3.12,0,0,0,1.27.53,1.12,1.12,0,0,0,.54.07.7.7,0,0,0,.33-1A1.93,1.93,0,0,0,138.87,137Z"/><path class="cls-22" d="M146.24,129a1.65,1.65,0,0,0,1,1.95,3.08,3.08,0,0,0,2-.21,1.28,1.28,0,0,0,.62-.38.79.79,0,0,0,0-.8,1.75,1.75,0,0,0-.57-.61,2.88,2.88,0,0,0-1.76-.64,1.59,1.59,0,0,0-1.47,1C146,129.5,146.29,128.84,146.24,129Z"/><path class="cls-22" d="M165.23,118.05a6.68,6.68,0,0,0-2,1.6,2.19,2.19,0,0,0-.44.73.89.89,0,0,0,.14.82,1,1,0,0,0,.5.28c1.06.3,2.26-.4,3.27,0a.77.77,0,0,0,.41.11c.27-.05.35-.39.35-.66a3.86,3.86,0,0,0-.51-1.81,2,2,0,0,0-.91-.9C165.59,118.06,165.67,117.81,165.23,118.05Z"/><path class="cls-22" d="M183.34,107.2a2.12,2.12,0,0,0-2.32,1.48,1.06,1.06,0,0,0,.12.92c.34.39,1,.26,1.46.1l2.17-.72a1,1,0,0,0-.23-1.15,2.91,2.91,0,0,0-1.07-.64C183.2,107.07,183.63,107.25,183.34,107.2Z"/><path class="cls-22" d="M200.29,95.4a1,1,0,0,0,.5.08,2.06,2.06,0,0,0,1.63-.91,8.46,8.46,0,0,1,.68-1.13,2.55,2.55,0,0,1,1.24-.61.37.37,0,0,0,.26-.15.28.28,0,0,0,0-.25,1,1,0,0,0-.63-.55,3.66,3.66,0,0,0-2.15,0,3.59,3.59,0,0,0-.86.27,2.29,2.29,0,0,0-1.2,2.47A1.09,1.09,0,0,0,200.29,95.4Z"/><path class="cls-22" d="M223.17,76.82a4.43,4.43,0,0,0-3.67,1,2.7,2.7,0,0,0-.58.48,1.63,1.63,0,0,0-.38.93,1.12,1.12,0,0,0,.08.51,1.06,1.06,0,0,0,1.37.38,2.72,2.72,0,0,0,1.08-1.1,4.2,4.2,0,0,1,1-1.21,13.1,13.1,0,0,0,1.16-.64C223.32,76.76,223.53,76.93,223.17,76.82Z"/></g></g></svg>