<svg xmlns="http://www.w3.org/2000/svg" viewBox="0 0 372 215"><defs><style>.cls-1{isolation:isolate;}.cls-2,.cls-3{fill:#e99736;}.cls-11,.cls-23,.cls-3,.cls-6{opacity:0.55;}.cls-10,.cls-11,.cls-21,.cls-3,.cls-6{mix-blend-mode:multiply;}.cls-4{fill:#709c23;}.cls-5{fill:#9dca29;}.cls-6{fill:#b67936;}.cls-7{fill:#fdcd08;}.cls-8{fill:#eea408;}.cls-9{fill:#f53333;}.cls-10,.cls-11{fill:#d33333;}.cls-12{fill:#e83333;}.cls-13{fill:#c71e1c;}.cls-14{fill:#c62222;}.cls-15{fill:#fd7e70;}.cls-16{fill:#d94c51;}.cls-17{fill:#f07162;}.cls-18{fill:#e88b1e;}.cls-19{fill:#f59d16;}.cls-20,.cls-22,.cls-23{fill:#f6c02e;}.cls-21{fill:#e19500;}.cls-21,.cls-22{opacity:0.32;}.cls-22,.cls-23{mix-blend-mode:screen;}</style></defs><title>sandwish2</title><g class="cls-1"><g id="poster"><polygon class="cls-2" points="199.76 111.51 143.3 163.89 149.71 172.32 253.67 101.47 249.99 93.23 199.76 111.51"/><path class="cls-3" d="M199.76,111.51,143.3,163.89l6.41,8.43,45.2-30.8c-1.12-3.12-1.69-6.4.24-9.28,2.87-4.29,7.45-7.45,12.12-9.51,4.5-2,9.69-.84,14.18.7l32.22-22L250,93.23Z"/><path class="cls-4" d="M232,107.39c-9.95,4.13-19,10.06-27.79,16.36-6,4.31-14.75,9.28-18.8,15.45-8.18,12.45-19.45,15.89-29,25.66-2.3,2.36-4.72,4.84-7.88,5.8s-7.25-.27-8.24-3.41,1.34-6.22,3.56-8.61A239.48,239.48,0,0,1,161.07,142,263.32,263.32,0,0,1,252,89.76c0,4.73-3.23,9-7.12,11.65S236.4,105.58,232,107.39Z"/><path class="cls-5" d="M161,161l-17.42,9.37c-1.83,1-3.77,2-5.85,2s-4.31-1.45-4.44-3.53c-.14-2.23,2.08-3.91,4.24-4.49s4.51-.53,6.52-1.49c2.24-1.07,3.72-3.21,5.39-5a42.9,42.9,0,0,1,6.36-5.44c3.21-2.38,6.51-4.63,9.81-6.88,9.38-6.4,14.95-14.54,24.34-21,8.21-5.6,20.24-9.47,28.45-15.07,10.87-7.42,21.82-14.9,31.08-24.26,1.69-1.71,3.82-3.63,6.15-3,2.5.63,3.4,4,2.38,6.37s-3.27,3.93-5.41,5.36l-4.23,2.83a33.42,33.42,0,0,0-6,4.68c-2.82,3-4.56,7-7.91,9.35s-7.82,2.64-11.91,3.41c-11.73,2.2-21.92,9.18-31.72,16-4.19,2.92-8.49,5.94-11.34,10.18-2.51,3.72-3.77,8.2-6.49,11.77C170,156.11,165.4,158.61,161,161Z"/><path class="cls-6" d="M195.67,124.2c1.33-1.53,2.59-2.06,4.32-3.12,4-2.4,7.71-5.15,11.59-7.68-7.22,3.7-15.51,6.93-21.66,11.12-9.39,6.41-15,14.55-24.34,21-3.3,2.25-6.6,4.5-9.81,6.88a42.9,42.9,0,0,0-6.36,5.44c-1.67,1.83-3.15,4-5.39,5a14.84,14.84,0,0,1-4.34,1.06c.11,4.94,7.35-.5,9.18-1.84,3.22-2.34,6.5-4.4,9.89-6.5,8.07-5,14.89-11.59,22.4-17.35a50.46,50.46,0,0,1,9.69-8l4.16-2.87C195.23,126.22,195,125,195.67,124.2Z"/><path class="cls-6" d="M233.21,100.82c3-2.18,5.8-4.51,8.7-6.77.47-.37,2.59-1.59,4-2.75a5.66,5.66,0,0,1-1.77-1.09c-7.85,7-16.56,13-25.25,18.91C223.73,106.51,228.78,104.08,233.21,100.82Z"/><polygon class="cls-7" points="135.32 160.28 139.71 166.3 194.83 126.15 190.82 121.55 185.72 118.28 147.32 143 135.32 160.28"/><polygon class="cls-8" points="135.32 160.28 139.71 166.3 194.83 126.15 190.82 121.55 135.32 160.28"/><path class="cls-9" d="M185.31,120.13l4.91,5.84,55.07-36-4.93-4.84s-21-1-35.75,8.13C190.92,101.74,184.34,111.81,185.31,120.13Z"/><path class="cls-10" d="M225.63,86.14c-6.64,1-14.44,3.09-21,7.15-7,4.29-12.06,9-15.28,13.67Z"/><path class="cls-11" d="M206.55,109.47a8.51,8.51,0,0,1-.74-5l-20.38,11.69a14.52,14.52,0,0,0-.12,4l4.91,5.85,19.3-12.6A12.66,12.66,0,0,1,206.55,109.47Z"/><path class="cls-12" d="M185.31,120.13l55.05-35s-21-1-35.75,8.13C190.92,101.74,184.34,111.81,185.31,120.13Z"/><path class="cls-13" d="M197.15,108.34c1.59-.53,7.36-1,7.88-1.28s-5.16-1.85-5.16-1.85,2.93-4.4,12.71-8c0,0-1.3,3.62,1.9,3.18s2.08-4.71,1.76-5.18,7.19-3.47,12.4-2.65l11.72-7.44s-21-1-35.75,8.13c-13.69,8.45-20.27,18.52-19.3,26.83l9.85-6.25C195.43,111.93,196,108.71,197.15,108.34Z"/><path class="cls-14" d="M202.17,99.88c7.71-5.29,17.69-10.59,30.35-9.74l7.84-5s-21-1-35.75,8.13c-13.69,8.45-20.27,18.52-19.3,26.83l4.63-2.93C189.71,109.6,195.68,104.33,202.17,99.88Z"/><path class="cls-15" d="M199.82,109.69c.13.37-.28.85-.92,1s-1.23.06-1.35-.32.29-.83.91-1S199.69,109.32,199.82,109.69Z"/><path class="cls-15" d="M205.59,103.58c.18.4-.23.92-.91,1.16s-1.36.08-1.53-.32.24-.91.9-1.14S205.4,103.18,205.59,103.58Z"/><path class="cls-15" d="M210.36,102c.24.46-.18,1-.94,1.3s-1.54.09-1.76-.37.2-1,.93-1.26S210.13,101.59,210.36,102Z"/><path class="cls-15" d="M221.38,95c.24.32-.12.78-.8,1s-1.4.17-1.62-.15.13-.76.79-1A1.6,1.6,0,0,1,221.38,95Z"/><path class="cls-9" d="M136.16,147.91l5.58,6.12,52.84-38-4.67-5s-20-1.58-34.55,7.74C141.33,127.84,134.68,138.88,136.16,147.91Z"/><path class="cls-11" d="M152.07,133.93c-.28-.25-.55-.53-.82-.8l-14.88,8.53a16.76,16.76,0,0,0-.21,6.25l5.58,6.12,19.92-14.3C157.84,139.42,154.57,137.08,152.07,133.93Z"/><path class="cls-12" d="M136.16,147.91l53.75-36.81s-20-1.58-34.55,7.74C141.33,127.84,134.68,138.88,136.16,147.91Z"/><path class="cls-13" d="M148.26,134.92c1.65-.59,7.61-1.17,8.13-1.46s-5.42-1.91-5.42-1.91,2.85-4.71,12.66-8.44c0,0-1.15,3.8,2,3.34s1.88-4.91,1.55-5.41,6.92-3.51,12-2.59l10.74-7.35s-20-1.58-34.55,7.74c-14,9-20.68,20-19.2,29.07l10.27-7C146.62,138.79,147.11,135.33,148.26,134.92Z"/><path class="cls-14" d="M153.12,125.85c7.68-5.56,17.43-11,29.65-9.86l7.14-4.89s-20-1.58-34.55,7.74c-14,9-20.68,20-19.2,29.07l4.86-3.33C140.4,136.38,146.53,130.62,153.12,125.85Z"/><path class="cls-15" d="M151.12,136.33c.15.39-.26.9-.91,1.13s-1.29.08-1.43-.32.26-.89.9-1.11S151,135.93,151.12,136.33Z"/><path class="cls-15" d="M156.81,129.78c.2.43-.19,1-.88,1.23s-1.39.1-1.58-.33.2-1,.87-1.21S156.61,129.36,156.81,129.78Z"/><path class="cls-15" d="M161.6,128.13c.26.48-.14,1.09-.9,1.36a1.47,1.47,0,0,1-1.8-.37c-.24-.47.16-1.07.9-1.34A1.5,1.5,0,0,1,161.6,128.13Z"/><path class="cls-15" d="M172.26,120.85c.24.33-.09.8-.74,1a1.5,1.5,0,0,1-1.61-.16c-.23-.33.1-.79.74-1A1.51,1.51,0,0,1,172.26,120.85Z"/><path class="cls-16" d="M207.87,87.09S174.1,104.9,174.42,107.5s10.07,6.66,17.56,4,48.35-28.22,50-33.12l-2.56-3.65S224,75,207.87,87.09Z"/><path class="cls-17" d="M230,83.68a226.76,226.76,0,0,1-22.86,14.76c-7.14,4.16-14.35,9.68-22.63,10.57a21.78,21.78,0,0,1-9.68-.7c1.88,2.53,10.43,5.59,17.17,3.23,7.49-2.62,48.35-28.22,50-33.12l-2.23-3.17C238.52,78.82,232.9,81.47,230,83.68Z"/><path class="cls-5" d="M192.9,105.1c3.22-.89,6.86-.26,9.76-1.92,4.61-2.66,5-9.78,9.63-12.45,2.51-1.46,5.74-1.21,8.27-2.65s3.88-4.26,5.94-6.31c3-3,7.35-4.22,11.55-4.88s8.52-.91,12.47-2.48A6.06,6.06,0,0,0,254,71.73c.64-1.34.1-3.3-1.34-3.65-1.12-.26-2.19.47-3.2,1s-2.41.89-3.18,0c-1-1.13.17-2.9,0-4.41s-1.87-2.61-3.45-2.58a8.88,8.88,0,0,0-4.35,1.67c-9,5.62-17,13.25-26.92,17.06-6.42,2.46-13.4,3.2-19.75,5.83A35.93,35.93,0,0,0,173.44,104a7.38,7.38,0,0,0-.93,3.11c0,2.76,2.85,4.85,5.61,4.91s5.31-1.34,7.6-2.87S190.24,105.83,192.9,105.1Z"/><path class="cls-5" d="M175.48,112c1.77-.73,3.83-.22,5.65-.81a5.71,5.71,0,0,0,3.56-6.18A7.82,7.82,0,0,0,180,99.21a12.52,12.52,0,0,0-7.61-.52c-6.08,1.3-11.07,5.62-15.2,10.27s-7.76,9.83-12.61,13.73c-4,3.2-8.79,5.61-11.48,9.94-1.35,2.18-2,4.7-3.07,7.06s-2.48,4.7-4.78,5.85a29,29,0,0,1-4.73,1.43c-1.57.49-3.18,1.43-3.71,3a4.09,4.09,0,0,0,2.54,4.82,6.5,6.5,0,0,0,5.73-.85,16.65,16.65,0,0,0,4.16-4.29,28.44,28.44,0,0,1,3.86-4.6c4.27-3.72,11-4.25,14.33-8.84,2.34-3.25,2.45-7.93,5.46-10.58,4.39-3.87,12.3-1.07,16.41-5.25C171.79,117.85,172.2,113.3,175.48,112Z"/><path class="cls-4" d="M175.27,110.18C168.58,112.73,166,120,160,123.24c3.43-.37,7-.5,9.31-2.87,2.49-2.52,2.9-7.07,6.18-8.42,1.77-.73,3.83-.22,5.65-.81a5.15,5.15,0,0,0,3-2.69C181.51,109.34,178.3,109,175.27,110.18Z"/><path class="cls-6" d="M131.9,145c5.81-2.87,11.54-6,17.21-9.1,12.64-7,23.51-15.22,34.73-24.22,10.62-8.53,23.69-13.2,34.11-22.07,4.62-3.93,9.09-8.17,14.12-11.58,2.78-1.88,5.59-3.7,8.33-5.63.17-.12.7-.44,1.34-.87a5.64,5.64,0,0,1-.7-.4,17.57,17.57,0,0,1-5.23-5.63c-8,5.38-15.31,11.92-24.28,15.35-6.42,2.46-13.4,3.2-19.75,5.83a36,36,0,0,0-14.95,11.69,14.42,14.42,0,0,0-4.44.28c-6.08,1.3-11.07,5.62-15.2,10.27s-7.76,9.83-12.61,13.73c-4,3.2-8.79,5.61-11.48,9.94-1.35,2.18-2,4.7-3.07,7.06a13.53,13.53,0,0,1-3.17,4.75C128.37,145.45,127.71,147.1,131.9,145Z"/><path class="cls-4" d="M141.58,132c3-4.71,5.23-8.56,11.11-9.5,4.91-.78,8.55-1.92,11.7-5.91a39.56,39.56,0,0,1,6.35-6.83c3.45-2.72,10.84-1.41,14-4.45,0-.11,0-.22,0-.33A7.82,7.82,0,0,0,180,99.21a12.52,12.52,0,0,0-7.61-.52c-6.08,1.3-11.07,5.62-15.2,10.27s-7.76,9.83-12.61,13.73c-4,3.2-8.79,5.61-11.48,9.94a30.71,30.71,0,0,0-2.38,5.33C135.21,137.13,139.43,135.34,141.58,132Z"/><path class="cls-18" d="M174.57,73.09l-57.26,65,9.12,6.73s91.2-55,113.87-75.42l-3.05-9Z"/><path class="cls-3" d="M205.11,66.91a78.4,78.4,0,0,1,6.48,18.4c.28,1.47.62,3.1.86,4.78,12-8.16,22.1-15.56,27.85-20.73l-3.05-9Z"/><path class="cls-3" d="M166.26,105c-3.68-3.83-6.63-9.68-6.39-15.19l-42.56,48.29,9.12,6.73S154.26,128,183,109.53C176.91,110.41,170.7,109.55,166.26,105Z"/><path class="cls-19" d="M174.57,73.09l-57.26,65,.65-.23c20.9-8.59,45-24.43,66.4-39.56,20.79-14.67,52.89-37.85,52.89-37.85Z"/><path class="cls-20" d="M174.39,74.79,122.5,133.65l.59-.21c18.95-7.78,40.74-22.14,60.18-35.85,18.84-13.28,47.92-34.29,47.92-34.29Z"/><path class="cls-21" d="M132.71,127.45l28.56-34.2c5.86-7,12.25-14.41,21-17,1.54-.45,3.33-.71,4.68.18s1.53,3.35,0,3.92A116.64,116.64,0,0,1,216.39,70a2.88,2.88,0,0,1-.39,3.18,8.51,8.51,0,0,1-2.72,2C185.2,90.67,132.71,127.45,132.71,127.45Z"/><path class="cls-22" d="M175.13,84c.55.6.14,1.86-.91,2.83s-2.36,1.26-2.91.67-.14-1.87.92-2.84S174.58,83.38,175.13,84Z"/><path class="cls-22" d="M203,75.32c.55.59.14,1.86-.91,2.83s-2.35,1.26-2.9.66-.15-1.86.91-2.83S202.46,74.72,203,75.32Z"/><path class="cls-22" d="M171.21,97c.55.6.14,1.87-.91,2.84s-2.35,1.26-2.9.66-.14-1.86.91-2.83S170.66,96.45,171.21,97Z"/><path class="cls-22" d="M150.26,110.77c.55.6.14,1.87-.91,2.83s-2.35,1.27-2.9.67-.14-1.87.91-2.83S149.71,110.17,150.26,110.77Z"/><path class="cls-22" d="M180.74,86.86c.55.6.14,1.87-.92,2.83s-2.35,1.27-2.9.67-.14-1.87.91-2.84S180.19,86.26,180.74,86.86Z"/><path class="cls-22" d="M184.14,77.33c.55.6.14,1.87-.92,2.84s-2.35,1.26-2.9.66-.14-1.86.91-2.83S183.59,76.74,184.14,77.33Z"/><path class="cls-22" d="M190.9,83.83c.46.66-.11,1.87-1.28,2.69s-2.5.94-3,.27.11-1.87,1.28-2.69S190.43,83.16,190.9,83.83Z"/><path class="cls-22" d="M165.85,92.7c.46.67-.11,1.87-1.28,2.69s-2.5.94-3,.27.11-1.87,1.28-2.68S165.38,92,165.85,92.7Z"/><path class="cls-22" d="M159.28,104.28c.47.66-.11,1.87-1.28,2.68s-2.5,1-3,.28.11-1.87,1.28-2.69S158.82,103.61,159.28,104.28Z"/><path class="cls-23" d="M194.79,70.66c6.63,1.35,13.26,2.65,19.72,4.65,9.52-6.84,16.68-12,16.68-12Z"/><path class="cls-23" d="M172.6,93.73c-4.77-.26-9.55-.42-14.33-.65l-8.29,9.4c2.79,0,5.44-.1,7.22-.06,5.91.13,11.82.13,17.73.06l1.38,0c2.34-1.62,4.67-3.24,7-4.86l4.33-3.06C182.6,94.3,177.6,94,172.6,93.73Z"/><path class="cls-23" d="M140.61,113.12,122.5,133.65l.59-.21c10.53-4.32,21.93-10.67,33.31-17.82C151.13,114.88,145.86,114,140.61,113.12Z"/></g></g></svg>