<svg xmlns="http://www.w3.org/2000/svg" viewBox="0 0 372 215"><defs><style>.cls-1{isolation:isolate;}.cls-2{fill:#f59745;}.cls-3{fill:#de9745;}.cls-3,.cls-7{opacity:0.35;}.cls-15,.cls-17,.cls-20,.cls-21,.cls-3,.cls-7{mix-blend-mode:multiply;}.cls-4{fill:#9dca29;}.cls-5{fill:#72a425;}.cls-6{fill:#fdcd08;}.cls-7{fill:#e3b771;}.cls-8{fill:#eea408;}.cls-9{fill:#ce2424;}.cls-10{fill:#e83333;}.cls-11{fill:#c71e1c;}.cls-12{fill:#fd3333;}.cls-13{fill:#fd7e70;}.cls-14,.cls-15{fill:#b35728;}.cls-15,.cls-23{opacity:0.32;}.cls-16{fill:#8c3800;}.cls-17{fill:#bb9549;}.cls-17,.cls-20,.cls-21{opacity:0.55;}.cls-18,.cls-23{fill:#f8cf5f;}.cls-19{fill:#f6c02e;}.cls-20{fill:#f0ca49;}.cls-21{fill:#d48703;}.cls-22{fill:#e69e00;}.cls-23{mix-blend-mode:screen;}</style></defs><title>Untitled-2-0ูก</title><g class="cls-1"><g id="poster"><path class="cls-2" d="M222.54,149.37s6.34-55.91-14.5-69.64-28.91-18.9-41.82-16.56c-7.89,1.43-29.63,13.37-37.29,16.42s-25.53,7.77-9.17,27S208.6,128.64,222.54,149.37Z"/><path class="cls-3" d="M219.33,97.21c-.19-.33-.39-.66-.59-1l-.09-.13a1.83,1.83,0,0,1-2.13-1c-3.36-6.46-7.41-9.6-13.25-14.07-2.84-2.16-8.56-5-9.86-8.62a1.71,1.71,0,0,1,0-.45c-.64-.58-1.27-1.14-1.94-1.67-5.1-4-8.39-3.59-14.63-2.73-4.3.6-14.25,2.29-19.05-.21a77.09,77.09,0,0,0-6,5.46,30.82,30.82,0,0,1-8.18,5.81c-3.33,1.47-7.17,2.07-9.3-1.38-1.05.5-2,1-2.92,1.35-1.61,2.76-3.36,5.52-5.82,7.3-2.75,2-6.14,2.94-8.52,4.93.08,2.69-1.37,4.34-3.16,6.21a30.6,30.6,0,0,0,5.94,9.54c16.37,19.18,88.84,22.1,102.78,42.83C222.54,149.37,226,118.69,219.33,97.21Z"/><path class="cls-4" d="M177.09,72.79a6.53,6.53,0,0,0-5.69,7.7,10.36,10.36,0,0,0,2.52,4.26C179.05,90.58,186.21,94.14,193,98s13.59,8.37,17.21,15.25c1,1.88,1.71,3.9,2.84,5.7a8.21,8.21,0,0,0,4.84,3.89c2.44.55,4.9-.56,7.15-1.64s5-2.61,5.6-5.18c.36-1.58-.18-3.25.1-4.84.33-1.87,1.7-3.36,2.58-5.05a10.24,10.24,0,0,0-1.88-11.71c-.64-.63-1.73-1.15-2.34-.5s0,1.69.58,2.31,1.38,1.42,1.08,2.25-1.57.94-2.29.4a4.77,4.77,0,0,1-1.34-2.29,37.26,37.26,0,0,0-8.37-13.24,5.65,5.65,0,0,0-2.16-1.54,2.13,2.13,0,0,0-2.41.65c-.89,1.35.49,3.55-.7,4.65a1.87,1.87,0,0,1-2.21,0,5.41,5.41,0,0,1-1.53-1.79l-3.75-6a9.81,9.81,0,0,0-.71-4.28,3.34,3.34,0,0,0-3.54-2c-1.63.4-2.73,2.43-4.4,2.22-1.33-.17-2-1.72-2-3.06s.41-2.68.19-4A4.76,4.76,0,0,0,191,64.52a6.07,6.07,0,0,0-5.23,3.08c-1,1.67-1.35,3.87-3,4.84S179,72.68,177.09,72.79Z"/><path class="cls-5" d="M229.8,109.05c.6-1.69,1.71-3.16,2.43-4.8s1-3.68,0-5.15a2.55,2.55,0,0,1-2.82,2.44,3.68,3.68,0,0,1-.69-.19,14.34,14.34,0,0,1-1,2.12c-.9,1.49-1.91,2.93-2.93,4.34-1.52,2.11-3.08,4.73-5.81,5.22-2.49.45-3.84-2.88-2.09-4a2.07,2.07,0,0,1,.19-.32,30.68,30.68,0,0,0,5.48-7.75c.88-2,1.3-4.1,2-6.11a23.27,23.27,0,0,0-4.29-7.72c-.48-.57-1.19-1.17-1.9-.91s-.85,1.23-.67,2a5.61,5.61,0,0,1,.42,2.22c-.24,1.33-2,1.88-3.24,1.35a6.18,6.18,0,0,1-2.68-2.91,16.75,16.75,0,0,0-1.34-2.08,3.88,3.88,0,0,1-.55-.59,5.28,5.28,0,0,0-.57-.47,10.39,10.39,0,0,0-3.76-1,4.33,4.33,0,0,1-3.25-1.93c-.87-1.76.33-4.43-1.28-5.56-1.76-1.23-4.12,1.34-6.19.74a3.3,3.3,0,0,1-2-2.86c-.18-1.23,0-2.49-.25-3.7a3.06,3.06,0,0,0-2.28-2.62c-1.45-.19-2.62,1.18-3.22,2.51s-1.06,2.87-2.28,3.68c-2.39,1.59-5.63-.77-8.4,0-2.24.57-3.52,3-3.76,5.33a11.93,11.93,0,0,0,.34,3.9c.16.19.32.39.49.58C179.05,90.59,186.21,94.14,193,98s13.59,8.37,17.21,15.25c1,1.88,1.71,3.9,2.84,5.7a8.21,8.21,0,0,0,4.84,3.89c2.44.55,4.9-.56,7.15-1.63a17.86,17.86,0,0,0,3.5-2.08C229.38,116,228.67,112.22,229.8,109.05Z"/><path class="cls-6" d="M161,74.56s14.79-6.32,17-7.37c0,0-.22,11.65,6.28,18.83l-3.82,14S161.73,88.17,161,74.56Z"/><path class="cls-7" d="M183.23,85.91c-.22-.24-.41-.49-.61-.74a13.47,13.47,0,0,1-12.27-3.44c-2.41-2.53-2.67-5.87-1.79-9l-6.5,2.79c.69,12.37,17.7,23.08,17.7,23.08Z"/><path class="cls-8" d="M176.83,69c-2.3,1.09-17,7.36-17,7.36.06,1,.29.75.52,1.7,3.89-2.91,14.68-5.86,14.68-5.86,3.78,11.53,7.11,16.76,7.87,14.18A41.49,41.49,0,0,1,176.83,69Z"/><path class="cls-8" d="M165.52,85.36a2.09,2.09,0,0,1-.34.21C170.92,94,180.44,100,180.44,100l-.36-4.78C176.61,91.91,168,83,165.52,85.36Z"/><path class="cls-4" d="M163,100.54a36,36,0,0,0,6.3-4.85l2.67-2.4c.88-.43.81-1.78.2-2.56a22.77,22.77,0,0,0-2.23-1.9c-1.53-1.53-1.64-3.92-1.92-6.07a26.3,26.3,0,0,0-4-10.92,9.38,9.38,0,0,0-3.79-3.68,4.21,4.21,0,0,0-4.9.83c-1.84,2.24-.11,6-1.82,8.33-.28.39-.8.75-1.24.52s-.43-.9-.36-1.42a11.94,11.94,0,0,0-1-6.93,8.12,8.12,0,0,0-5.32-4.36,6.18,6.18,0,0,0-6.3,2.29,5,5,0,0,0,.67,6.45c1,.82,2.42,1.49,2.35,2.75A1.87,1.87,0,0,1,139.73,78a4,4,0,0,1-2-2.57,19.75,19.75,0,0,0-1-3.21,5.52,5.52,0,0,0-5.79-2.69,6.45,6.45,0,0,0-4.8,4.4,7.82,7.82,0,0,0,1,6.54c1.21,1.87,3.09,3.19,4.7,4.73,4.35,4.17,6.89,10.06,11.62,13.79A18.17,18.17,0,0,0,163,100.54Z"/><path class="cls-5" d="M143.26,79.47c-1,1.31-3.2,1-4.47-.06s-2-2.66-2.89-4-2.36-2.68-4-2.57c-2,.13-3.34,2.37-3.13,4.35a8.21,8.21,0,0,0,3.05,5c2.75,2.43,6.16,4.08,8.71,6.72,1.72,1.77,3,3.93,4.57,5.81s3.67,3.57,6.13,3.85a12.21,12.21,0,0,0,5.39-1,125.52,125.52,0,0,0,14.13-6.16c-3-1.79-6.31-3.86-7.42-7.21a14.22,14.22,0,0,1-.51-4.26,16.55,16.55,0,0,0-.42-4.28,5.3,5.3,0,0,0-2.5-3.36,3.2,3.2,0,0,0-3.91.7,4.16,4.16,0,0,0-.33,3.68,24.19,24.19,0,0,1,1.14,3.66,3.14,3.14,0,0,1-1.43,3.29,2.93,2.93,0,0,1-2.9-.48,7,7,0,0,1-2.35-4.39c-.31-1.67-.33-3.39-.72-5a6.19,6.19,0,0,0-2.75-4.11c-1.5-.8-3.7-.38-4.39,1.17s.12,3,.78,4.39S144.21,78.26,143.26,79.47Z"/><path class="cls-4" d="M138.83,91.19a2.85,2.85,0,0,0-1.3,2.59,6.28,6.28,0,0,0,1,2.85,16.44,16.44,0,0,0,6,6,14.53,14.53,0,0,0,10.11,1.81,11.64,11.64,0,0,0,8.08-6.14,9.76,9.76,0,0,0-.91-9.94c-.79-1-2.17-1.9-3.29-1.27s-1.08,2.28-1.79,3.36a2.6,2.6,0,0,1-4.53-.36c-.65-1.43,0-3.39-1.11-4.51a2.65,2.65,0,0,0-3.31,0,10.19,10.19,0,0,0-2.28,2.76,5.22,5.22,0,0,1-2.68,2.3C141.46,91.06,140,90.55,138.83,91.19Z"/><path class="cls-5" d="M162.44,97.46a7.28,7.28,0,0,1-.49-3,5.34,5.34,0,0,0-.72-3,2,2,0,0,0-2.71-.64c-.62.49-.74,1.36-1.11,2.06a3.09,3.09,0,0,1-5.31.29,12.89,12.89,0,0,1-.91-2.12,2.46,2.46,0,0,0-1.58-1.55,2.54,2.54,0,0,0-2.35,1.3,7.6,7.6,0,0,0-1.2,5.24,10.83,10.83,0,0,0,2.09,5,10.56,10.56,0,0,0,5.41,4,7.27,7.27,0,0,0,6.49-1.13,5.57,5.57,0,0,0,1.82-6.14Z"/><path class="cls-9" d="M215.3,107.06l-3.24,5.59L227,133.19l3.58-3s4.74-12.45.6-19.89S220.53,102.38,215.3,107.06Z"/><path class="cls-10" d="M215.3,107.06l15.25,23.11s4.74-12.45.6-19.89S220.53,102.38,215.3,107.06Z"/><path class="cls-11" d="M221.5,110.89c.17.93-.1,4.65,0,4.91s1.72-4.17,1.72-4.17,2.61.39,3.64,5.86c0,0-2.2.31-2.31,2.15s2.75-.09,3.12-.43,1.23,3.38-.08,6.48l3,4.48s4.74-12.45.6-19.89-10.62-7.9-15.85-3.22l3,4.55C219.43,111.07,221.37,110.23,221.5,110.89Z"/><path class="cls-12" d="M226.58,111.18c2.58,3.57,4.67,8.52,2,16l2,3s4.74-12.45.6-19.89-10.62-7.9-15.85-3.22l1.42,2.16C221.46,105.76,224.36,108.1,226.58,111.18Z"/><path class="cls-13" d="M220.4,113.26c-.24.22-.48.11-.55-.24a1.28,1.28,0,0,1,.31-1c.24-.22.48-.11.55.25A1.24,1.24,0,0,1,220.4,113.26Z"/><path class="cls-13" d="M223.61,115c-.28.26-.56.17-.63-.2a1.39,1.39,0,0,1,.38-1.15c.28-.26.56-.17.63.2A1.39,1.39,0,0,1,223.61,115Z"/><path class="cls-13" d="M224,117.59c-.31.29-.63.2-.7-.19a1.55,1.55,0,0,1,.43-1.25c.31-.29.63-.2.7.19A1.55,1.55,0,0,1,224,117.59Z"/><path class="cls-13" d="M227.08,122.24c-.24.22-.48.13-.54-.2a1.22,1.22,0,0,1,.31-1c.24-.22.48-.13.54.19A1.2,1.2,0,0,1,227.08,122.24Z"/><path class="cls-9" d="M193.3,73.75,188,72.44l-16.15,35,3.13,3.43s11.6-.75,17.62-11.58S198.12,78.6,193.3,73.75Z"/><path class="cls-10" d="M193.3,73.75l-18.37,37.16s11.6-.75,17.62-11.58S198.12,78.6,193.3,73.75Z"/><path class="cls-11" d="M190.75,85.37c-.8.84-4.12,2.76-4.33,3.08s3.9-.06,3.9-.06,0,4.13-4.69,9.08c0,0-.57-3.07-2.21-2.08s.45,4,.8,4.36-2.82,3.94-5.73,4l-3.56,7.21s11.6-.75,17.62-11.58,5.57-20.73.75-25.58l-3.61,7.31C190.32,82.4,191.31,84.77,190.75,85.37Z"/><path class="cls-12" d="M191.16,93.11c-2.81,6.06-6.9,12.27-13.87,13l-2.36,4.78s11.6-.75,17.62-11.58,5.57-20.73.75-25.58l-1.71,3.48C195.27,82.09,193.58,87.87,191.16,93.11Z"/><path class="cls-13" d="M188.51,85.22a.71.71,0,0,1,.14-1c.31-.33.74-.41,1-.2s.16.65-.14,1A.71.71,0,0,1,188.51,85.22Z"/><path class="cls-13" d="M187.41,91.08A.77.77,0,0,1,187.5,90a.68.68,0,1,1,1,.91A.77.77,0,0,1,187.41,91.08Z"/><path class="cls-13" d="M185.17,93.33a.91.91,0,1,1,1.15-.14A.83.83,0,0,1,185.17,93.33Z"/><path class="cls-13" d="M181.47,100.78a.67.67,0,0,1,.1-.93.66.66,0,0,1,.92-.15.77.77,0,0,1-1,1.08Z"/><path class="cls-9" d="M193.28,72.55l-5.35-1.3-16.16,35,3.13,3.43s11.61-.75,17.63-11.58S198.1,77.4,193.28,72.55Z"/><path class="cls-10" d="M193.28,72.55,174.9,109.71s11.61-.75,17.63-11.58S198.1,77.4,193.28,72.55Z"/><path class="cls-11" d="M190.72,84.17c-.8.84-4.12,2.77-4.33,3.09s3.91-.06,3.91-.06,0,4.12-4.7,9.07c0,0-.56-3.07-2.2-2.08s.45,4,.79,4.36-2.82,4-5.72,4l-3.57,7.2s11.61-.75,17.63-11.58,5.57-20.73.75-25.58l-3.62,7.32C190.29,81.2,191.28,83.57,190.72,84.17Z"/><path class="cls-12" d="M191.13,91.91c-2.81,6.07-6.9,12.27-13.86,13l-2.37,4.78s11.61-.75,17.63-11.58,5.57-20.73.75-25.58L191.56,76C195.24,80.89,193.56,86.67,191.13,91.91Z"/><path class="cls-13" d="M188.48,84a.86.86,0,1,1,1-.2A.72.72,0,0,1,188.48,84Z"/><path class="cls-13" d="M187.38,89.88a.87.87,0,1,1,1.06-.16A.77.77,0,0,1,187.38,89.88Z"/><path class="cls-13" d="M185.14,92.13a.84.84,0,0,1,.08-1.16.76.76,0,1,1,1.08,1A.84.84,0,0,1,185.14,92.13Z"/><path class="cls-13" d="M181.44,99.58a.68.68,0,0,1,.1-.93.59.59,0,1,1,.82.78A.68.68,0,0,1,181.44,99.58Z"/><path class="cls-6" d="M212.22,105.6a4.94,4.94,0,0,0,2.53.62,4.09,4.09,0,0,0,2.76-2.16A11,11,0,0,0,219,99.9a7,7,0,0,0-.28-3.48A4.09,4.09,0,0,0,216.38,94a2.94,2.94,0,0,0-3.2.83,7.34,7.34,0,0,0-.79-7.21,6,6,0,0,0-3.74-2.44,4.54,4.54,0,0,0-4.17,1.36,3.68,3.68,0,0,0-.45,4.25,5,5,0,0,0-9.25-1.45,6.17,6.17,0,0,0-.2,5.48A10.19,10.19,0,0,0,198.26,99a29.75,29.75,0,0,0,5,2.62Z"/><path class="cls-8" d="M211.75,105a4.38,4.38,0,1,0-.87-8.65,6.17,6.17,0,0,0-.7-6.92,3.2,3.2,0,0,0-2.76-1.27,2.92,2.92,0,0,0-2.16,2.51,8.48,8.48,0,0,0,.43,3.48,8.38,8.38,0,0,0-4.82-3.84,3,3,0,0,0-2.81.27,2.44,2.44,0,0,0-.7,2.21,6.29,6.29,0,0,0,.93,2.22,32.78,32.78,0,0,0,5.59,7,13.9,13.9,0,0,0,4.08,2.85,6.38,6.38,0,0,0,4.87.13Z"/><path class="cls-4" d="M229.14,134.46a4.58,4.58,0,0,0-.07,2.79,16.48,16.48,0,0,1,.55,2.78,3,3,0,0,1-1,2.54A3.29,3.29,0,0,1,226,143a7.43,7.43,0,0,1-5.85-6.35,14.64,14.64,0,0,1,.18-3.43c.15-1.1.3-2.21.44-3.32.29-1.26.58-2.53.86-3.79.68-3,1.34-6.18.24-9a5.68,5.68,0,0,1,4.9,1.43,11.57,11.57,0,0,1,2.88,4.41c.36.89.8,1.91,1.73,2.15s1.57-.27,2.37-.3a2.55,2.55,0,0,1,2.33,1.58,3.41,3.41,0,0,1-.21,2.89,5.3,5.3,0,0,1-2.11,2.06c-.84.48-1.76.78-2.61,1.23A4.27,4.27,0,0,0,229.14,134.46Z"/><path class="cls-5" d="M220.83,120.13a19.7,19.7,0,0,0,9.83,6.44,6.12,6.12,0,0,1,2,.76,1.74,1.74,0,0,1,.76,1.84,1.91,1.91,0,0,1-1.74,1.09c-.72.05-1.44-.1-2.16,0a3.58,3.58,0,0,0-3.24,4.07,10.29,10.29,0,0,0,.51,1.78,3.64,3.64,0,0,1,.23,1.81,1.62,1.62,0,0,1-1.13,1.33,2.18,2.18,0,0,1-1.2-.17,9.14,9.14,0,0,1-5.72-10.93c.36-1.34,1-2.59,1.5-3.89A6.64,6.64,0,0,0,220.83,120.13Z"/><path class="cls-14" d="M114.25,95.79a17.28,17.28,0,0,0,6.61,10.44,15.39,15.39,0,0,0,12,2.7,29,29,0,0,0,7.63-3.16l11.44-6.1a15.9,15.9,0,0,1-4.11-8,14.43,14.43,0,0,0-1.45-5.51,4.92,4.92,0,0,0-4.69-2.65c-1.17.18-2.2.94-3.37,1.11A6.09,6.09,0,0,1,134,83.09a14.86,14.86,0,0,0-3.9-2.47c-1.47-.48-3.37-.13-4.08,1.24-.58,1.12-.23,2.59-1,3.63a3.32,3.32,0,0,1-3,1.11,20.55,20.55,0,0,0-3.31-.23A5.57,5.57,0,0,0,114.5,90,10.25,10.25,0,0,0,114.25,95.79Z"/><path class="cls-15" d="M144.9,97.49c-4.11-1.59-6.73-.33-10.59.63-2.67.65-4.86-.85-6.65-2.61a7.4,7.4,0,0,1-1.53-7.33c1.2-3.43,3.81-5.62,1.58-7.6A2.61,2.61,0,0,0,126,81.86c-.58,1.12-.23,2.59-1,3.63a3.32,3.32,0,0,1-3,1.11,20.55,20.55,0,0,0-3.31-.23A5.57,5.57,0,0,0,114.5,90a10.25,10.25,0,0,0-.25,5.81,17.28,17.28,0,0,0,6.61,10.44,15.39,15.39,0,0,0,12,2.7,29,29,0,0,0,7.63-3.16l9.39-5A17.64,17.64,0,0,0,144.9,97.49Z"/><path class="cls-16" d="M144.57,93.93a5.82,5.82,0,0,0-.13-2.66,3.73,3.73,0,0,0-1.59-2.1,2.94,2.94,0,0,0-2.63-.17,2.62,2.62,0,0,0-1.54,2.1,3.06,3.06,0,0,0,1,2.45,5.74,5.74,0,0,0,2.42,1.26,2.4,2.4,0,0,0,2.52-.37C145.09,93.92,145.08,94.38,144.57,93.93Z"/><path class="cls-16" d="M135.51,95.64A2.82,2.82,0,0,0,134,92.79a3,3,0,0,0-3.23.52,3.24,3.24,0,0,0-.89,3.17,3.52,3.52,0,0,0,2.34,2.37,2.77,2.77,0,0,0,2.27-.23,2.94,2.94,0,0,0,1.21-2C135.79,95.77,135.39,96.44,135.51,95.64Z"/><path class="cls-16" d="M125.58,93.62a11.7,11.7,0,0,0-1-2.65,3.9,3.9,0,0,0-2.08-1.84,2.38,2.38,0,0,0-2.57.68,3.13,3.13,0,0,0-.44,2.29,5.32,5.32,0,0,0,1.36,3.09,3.31,3.31,0,0,0,3.13,1,2.42,2.42,0,0,0,1.79-2.58C125.71,93.1,126,93.94,125.58,93.62Z"/><path class="cls-17" d="M222.55,149.27v-.12c0-.07,0-.15,0-.25s0-.15,0-.25a2.11,2.11,0,0,1,0-.25c0-.27.05-.58.09-.94a1.64,1.64,0,0,1,0-.22c0-.23,0-.48.06-.74a1.49,1.49,0,0,1,0-.21c.1-1.23.21-2.8.31-4.65a7.63,7.63,0,0,0,1.22.74c-.83-1.81-1.06-3.93.08-7.17,1.38-3.9,4.3-8.55,1.65-12.68a9.44,9.44,0,0,1-1.68-6c.6-5.49-3.32-9.57-7.77-13.35a14.66,14.66,0,0,0-9.15-3.48c-2.21-.06-4.51-.52-6.38-.66-3.34-.26-7.53-.49-9.77-3.39-1.55-2-2.25-5,0-6.85a4.17,4.17,0,0,1,.44-.29c-5.84-.71-11.89-.68-16.19-1.08-.24,0-.48-.07-.71-.12l-.61.39c-2.11,1.36-4.38,2.68-6.94,2.89a15.55,15.55,0,0,1-6-.78c-2.77,3.16-6.3,6.28-9.82,4.64a8.16,8.16,0,0,1-2.24-1.61c-4.34,3-6.36,5.59-12.64,6.6-7.25,1.16-8.67,5-16.15,2.49a23,23,0,0,1-6-3.29l.16.4c0,.09.09.19.14.28.33.67.71,1.37,1.15,2.09l0,0c.44.71,1,1.46,1.51,2.22l.38.51c.58.77,1.2,1.56,1.9,2.39,16.37,19.18,88.84,22.1,102.78,42.83Z"/><path class="cls-18" d="M156.07,95.44c11.81-5.3,25.46-6.93,37.89-3.32s23.41,12.75,28.1,24.81c3.56,9.15,3.44,19.25,3.27,29.06-.12,7-1.09,9.26-1.21,16.23,0,1.21,2.59,7.06,1.65,7.83-1.51,1.23-5.55.1-7-1.18a238.85,238.85,0,0,0-54.85-35.5c-9.67-4.52-19.68-8.41-28.79-14s-17.41-13.1-21.71-22.87c2,5,7.18,8.25,12.51,9S151.16,97.65,156.07,95.44Z"/><path class="cls-19" d="M220.47,132.32c-1.28-12.27-5-27.21-17.11-33.39-9.08-4.64-18.46-5.29-28.49-4.77-10.21.54-19.16,6.41-28.79,9.41-5.92,1.85-14.29,5.32-20.69,3.94a19.33,19.33,0,0,1-7.49-3.33,60.41,60.41,0,0,0,17.2,15.2c9.11,5.58,19.12,9.47,28.79,14a238.85,238.85,0,0,1,54.85,35.5c1.48,1.28,5.52,2.41,7,1.18l.08-.1C219.24,159.24,221.76,144.61,220.47,132.32Z"/><path class="cls-19" d="M220.47,132.32c-1.28-12.27-5-27.21-17.11-33.39-9.08-4.64-18.46-5.29-28.49-4.77-10.21.54-19.16,6.41-28.79,9.41-5.92,1.85-14.29,5.32-20.69,3.94a19.33,19.33,0,0,1-7.49-3.33,60.41,60.41,0,0,0,17.2,15.2c9.11,5.58,19.12,9.47,28.79,14a238.85,238.85,0,0,1,54.85,35.5c1.48,1.28,5.52,2.41,7,1.18l.08-.1C219.24,159.24,221.76,144.61,220.47,132.32Z"/><path class="cls-20" d="M220.27,150.59c-5-7.49-10.77-11.46-19.57-14.14-9.46-2.88-18.86-5.22-26.15-12.27-8.94-8.63-7.37-19.93-2.45-29.7-9.08,1.31-17.27,6.36-26,9.09-5.92,1.85-14.29,5.32-20.69,3.94a19.33,19.33,0,0,1-7.49-3.33,60.41,60.41,0,0,0,17.2,15.2c9.11,5.58,19.12,9.47,28.79,14a238.85,238.85,0,0,1,54.85,35.5c1.48,1.28,5.52,2.41,7,1.18l.08-.1A35.24,35.24,0,0,1,220.27,150.59Z"/><path class="cls-21" d="M186.8,138c-9.38-8.93-18-12.58-30.43-15.58-6.15-1.47-12.68-2.93-19.17-4.72l.69.44c9.11,5.58,19.12,9.47,28.79,14a238.2,238.2,0,0,1,32.74,18.62C195.35,146.06,190.7,141.72,186.8,138Z"/><path class="cls-22" d="M211.12,114.3a6.84,6.84,0,0,0-6.06-5.47,3.64,3.64,0,0,0-1.79.25,2,2,0,0,0-1.16,1.31c-.24,1,.59,2,1.45,2.64a9.93,9.93,0,0,0,4.47,1.8,3.31,3.31,0,0,0,2.36-.36C211.06,114,211.68,114.88,211.12,114.3Z"/><path class="cls-22" d="M192.65,109a3.85,3.85,0,0,0-3.39-3.39,1.87,1.87,0,0,0-2,1.07,2.29,2.29,0,0,0,.85,2,5.11,5.11,0,0,0,2,1.45,2.09,2.09,0,0,0,2.28-.58C192.84,108.94,193.47,109.21,192.65,109Z"/><path class="cls-22" d="M198.64,129.53a6.25,6.25,0,0,0-10.7-5.52,2.79,2.79,0,0,0-.9,2.24,3.15,3.15,0,0,0,1.52,1.93,12.85,12.85,0,0,0,6.24,2.22C195.72,130.48,198.45,130.43,198.64,129.53Z"/><path class="cls-22" d="M219.65,136.7c-.87-.55-2.17-.77-2.83,0s-.22,2,.4,2.82a3.85,3.85,0,0,0,1.33,1.21,2,2,0,0,0,1.76.07,2,2,0,0,0,.88-2.18A3.37,3.37,0,0,0,219.65,136.7Z"/><path class="cls-22" d="M217.29,153.17a9.44,9.44,0,0,0-.57-2.4,3.17,3.17,0,0,0-1.65-1.76,2,2,0,0,0-2.24.53,2.14,2.14,0,0,0-.07,2.16,6,6,0,0,0,1.43,1.75,4.33,4.33,0,0,0,1.31,1,1.53,1.53,0,0,0,1.55-.15,1.52,1.52,0,0,0,.41-1.41C217.37,152.37,217.36,153.68,217.29,153.17Z"/><path class="cls-22" d="M202.8,145.33a8.2,8.2,0,0,0-1.57-3.88,4,4,0,0,0-3.72-1.55,2.74,2.74,0,0,0-2.23,3.06,4.19,4.19,0,0,0,1.39,2,6.71,6.71,0,0,0,2.57,1.65,2.8,2.8,0,0,0,2.84-.63C202.77,145.22,203.69,145.84,202.8,145.33Z"/><path class="cls-22" d="M177.8,124.07a6.13,6.13,0,0,0-3-1.55c-1.14-.1-2.45.73-2.39,1.87a2.29,2.29,0,0,0,1.52,1.83,3.38,3.38,0,0,0,2.42.2,2.27,2.27,0,0,0,1.56-1.77C178,123.82,178.45,124.57,177.8,124.07Z"/><path class="cls-22" d="M159.39,110.34a6.3,6.3,0,0,0-6.89-1,3.91,3.91,0,0,0-1.82,1.66,2.31,2.31,0,0,0,.09,2.37c.7,1,2.08,1.05,3.28,1s2.12-.1,3.18-.19,2.26-.31,2.77-1.24a2.25,2.25,0,0,0-.37-2.39C159.1,109.91,160,110.92,159.39,110.34Z"/><path class="cls-23" d="M217.81,131a15.56,15.56,0,0,0-.61-11.16,27.84,27.84,0,0,0-6.7-9.17,47.3,47.3,0,0,0-23.78-12.2c-2.59-.48-5.46-.69-7.65.75-2.53,1.65-3.38,5.12-2.72,8.07s2.53,5.47,4.52,7.74a94.87,94.87,0,0,0,16.37,14.21,34.89,34.89,0,0,0,7.51,4.37,13,13,0,0,0,8.53.55,8.18,8.18,0,0,0,5.68-6Z"/></g></g></svg>