<svg xmlns="http://www.w3.org/2000/svg" width="161.323" height="161.691" viewBox="0 0 142.323 159.691">
  <g id="Group_1426" data-name="Group 1426" transform="translate(-83.509 -590.639)">
    <g id="Group_1186" data-name="Group 1186" transform="translate(83.509 590.639)">
      <path id="Path_4574" data-name="Path 4574" d="M198.4,230.669c-15.561-4.318-64.662-4.727-84.809,10.412C93.609,256.1,81.718,290.139,95.5,304.89c9.419,10.067,28.573,12.567,33.87,26.022,5.178,13.138,19.358,16.738,38.991,16.259,41.274-1,55.391-4.41,60.822-27.847,4.579-19.767,3.522-32.651-4.8-47.748C217.9,259.791,232.738,240.186,198.4,230.669Z" transform="translate(-89.555 -207.564)" fill="#f2e3d7"/>
      <g id="Group_1183" data-name="Group 1183" transform="translate(40.859)">
        <line id="Line_35" data-name="Line 35" transform="translate(38.663 119.46)" fill="none" stroke="#aeaead" stroke-linecap="round" stroke-miterlimit="10" stroke-width="2"/>
        <path id="Path_4485" data-name="Path 4485" d="M209.871,284.768c12.736-1.944,2.987-39.632-9.919-44.232S199.3,286.374,209.871,284.768Z" transform="translate(-161.402 -211.161)" fill="#ffe6be"/>
        <path id="Path_4486" data-name="Path 4486" d="M209.621,277.957c6.685-2.924,21.669-2.459,21.669-2.459l4.184,4.84s-14,14.484-24.127,14.526C206.423,294.864,204.725,280.07,209.621,277.957Z" transform="translate(-165.033 -221.574)" fill="#f9d5a0"/>
        <path id="Path_4487" data-name="Path 4487" d="M240.512,283.719l4.494-4.184-2.987-6.925-5.96,2.839Z" transform="translate(-173.713 -220.728)" fill="#61474f"/>
        <path id="Path_4488" data-name="Path 4488" d="M201.04,303.77l-30.552,7.946-1.578,77.454h.662L187.6,339.528l1.071-.458,7.749,50.558h.923S207.76,327.179,201.04,303.77Z" transform="translate(-153.867 -229.938)" fill="#444243"/>
        <path id="Path_4489" data-name="Path 4489" d="M177.433,323.395a112.769,112.769,0,0,0,25.36-9.743,34.25,34.25,0,0,0-1.719-9.862l-31,7.918L168.93,389.2h.155Z" transform="translate(-153.873 -229.943)" fill="#333031"/>
        <path id="Path_4490" data-name="Path 4490" d="M199.329,348.07l-5.481,2.74-5.2-1.254,4.685,3.712,1.071-.458,7.883,49.9h.775l-6.418-50.925Z" transform="translate(-159.701 -243.03)" fill="#333031"/>
        <path id="Path_4491" data-name="Path 4491" d="M166.8,307.152s.261,10.158,2.113,11.159c2.346,1.275,32.623-7.207,33.68-9.045.916-1.578-.12-9.545-.12-9.545Z" transform="translate(-153.243 -228.741)" fill="#ffe6be"/>
        <path id="Path_4492" data-name="Path 4492" d="M192.7,310.267a28.375,28.375,0,0,1,10.053-1.374c.7-2-.225-9.313-.225-9.313l-35.652,7.432s.261,10.151,2.113,11.151c.965.521,6.819-.648,13.385-2.318C184.439,313.739,188.187,311.64,192.7,310.267Z" transform="translate(-153.264 -228.699)" fill="#f9d5a0"/>
        <path id="Path_4493" data-name="Path 4493" d="M163.533,293.586s17.879,2.818,39.182-9.926c0,0-1.684-36.927-9.087-42.471-8.087-6.044-18.1-6.671-25.255-3.107C156.094,244.211,163.533,293.586,163.533,293.586Z" transform="translate(-151.618 -209.877)" fill="#f9d5a0"/>
        <path id="Path_4494" data-name="Path 4494" d="M184.195,285.148c6.565-3.163,13.279-4.163,18.386-3.163a209.4,209.4,0,0,0-2.98-25.114,11.5,11.5,0,0,1-1.543,1.233c-7.045,4.678-17.654,1.127-23.67-7.932a23.338,23.338,0,0,1-4.008-12.342,21.129,21.129,0,0,0-2.008.845c-12.279,6.129-4.84,55.5-4.84,55.5a42.087,42.087,0,0,0,8.869.085,33.566,33.566,0,0,1,11.793-9.116Z" transform="translate(-151.618 -210.449)" fill="#f9d5a0"/>
        <path id="Path_4495" data-name="Path 4495" d="M204.448,293.441c0-.31-.7-30.531-4.318-43.281l.845-.24c3.663,12.856,4.346,43.2,4.354,43.5Z" transform="translate(-163.094 -214.022)" fill="#f9d5a0"/>
        <path id="Path_4496" data-name="Path 4496" d="M153.338,285.161c-12.68-2.029-2.36-41.323,10.63-46.12S163.876,286.823,153.338,285.161Z" transform="translate(-147.558 -210.715)" fill="#ffe6be"/>
        <path id="Path_4497" data-name="Path 4497" d="M153.983,270.542c-3.614-1.12-.225-11.609,2.564-20.612a40.623,40.623,0,0,1,1.7-4.53c-9.862,11.6-15.667,40.02-4.931,41.732,6.178.986,13.223-16.681,15.385-30.5C165.811,264.2,157.231,271.549,153.983,270.542Z" transform="translate(-147.555 -212.686)" fill="#f9d5a0"/>
        <path id="Path_4498" data-name="Path 4498" d="M194.779,238.26c-5.488-2.916-9.334-3.086-12.589-2.416,3.79,2.113,12.6,11.976,14.483,16.026C196.674,251.87,199.16,242.86,194.779,238.26Z" transform="translate(-157.792 -209.766)" fill="#ffe6be"/>
        <path id="Path_4499" data-name="Path 4499" d="M195.423,239.084a7.5,7.5,0,0,0-.7-.824c-5.488-2.916-9.334-3.086-12.589-2.416l.535.331a26.274,26.274,0,0,0,3.248,1.543C189.942,239.31,193.676,239.789,195.423,239.084Z" transform="translate(-157.774 -209.766)" fill="#f9d5a0"/>
        <path id="Path_4500" data-name="Path 4500" d="M182.74,230.273l.888-12.913,9.581,5.347.458,9.545A21.986,21.986,0,0,1,182.74,230.273Z" transform="translate(-157.954 -204.399)" fill="#ec7656"/>
        <path id="Path_4501" data-name="Path 4501" d="M184.3,207.053c-1.3,4.128.535,13.673,1.606,14.744s8.63,4.051,10.841,3.057c0,0,1.508-15.871-1.247-19.3S185.31,203.855,184.3,207.053Z" transform="translate(-158.284 -200.355)" fill="#fcba83"/>
        <path id="Path_4502" data-name="Path 4502" d="M190.567,211.194a18.055,18.055,0,0,1,6.3-.986,9.644,9.644,0,0,0-1.409-4.656c-2.747-3.438-10.193-1.7-11.2,1.5-.613,1.944-.528,5.079-.162,7.974A17.745,17.745,0,0,1,190.567,211.194Z" transform="translate(-158.271 -200.353)" fill="#f89c68"/>
        <path id="Path_4503" data-name="Path 4503" d="M179.32,213.048l2.818,7.9,2.374-3.142s.782-9.792,3.114-10.334l-8.27-.845Z" transform="translate(-156.943 -201.228)" fill="#8f3c2a"/>
        <path id="Path_4504" data-name="Path 4504" d="M178.624,209.372c-2.212-3.114-1.768-5.445-1.183-6.5,1.148-2.057,6.164-4.368,11.109-3.839a5.558,5.558,0,0,1,5.234,5.234C187.789,204.469,182.125,205.808,178.624,209.372Z" transform="translate(-156.247 -198.961)" fill="#8f3c2a"/>
        <path id="Path_4505" data-name="Path 4505" d="M183.863,205.07a6.763,6.763,0,0,1-2.437-4.6,8.043,8.043,0,0,0-3.98,2.818c-.557.993-1.029,3.381,1.183,6.5a15.455,15.455,0,0,1,6.46-3.748,10.762,10.762,0,0,1-1.226-.965Z" transform="translate(-156.252 -199.407)" fill="#8f3c2a"/>
        <path id="Path_4506" data-name="Path 4506" d="M172.36,252.413l40.471-10.553,25.466,13,.24,2.064-33.68,7.735-32.468-7.9Z" transform="translate(-154.886 -211.64)" fill="#c0543a"/>
        <path id="Path_4507" data-name="Path 4507" d="M214.056,246.3l24.452,10.63.028-.007-.24-2.064-25.466-13L172.36,252.413l.028,4.332Z" transform="translate(-154.886 -211.64)" fill="#ec7d5a"/>
        <path id="Path_4508" data-name="Path 4508" d="M214.056,246.3l-1.226-4.438L172.36,252.413l.028,4.332Z" transform="translate(-154.886 -211.64)" fill="#ce6041"/>
        <path id="Path_4509" data-name="Path 4509" d="M227.429,243.64l-3.149,1.078.106,2.564,3.248-1.634Z" transform="translate(-170.231 -212.166)" fill="#ec7d5a"/>
        <path id="Path_4510" data-name="Path 4510" d="M173.552,259.624l40.654-10.144,24.726,10.9.155,2.071-33.793,9.482-31.9-7.967Z" transform="translate(-155.191 -213.892)" fill="#c0543a"/>
        <path id="Path_4511" data-name="Path 4511" d="M215.251,253.967l23.817,8.489.021-.007-.155-2.071-24.726-10.9-40.654,10.144-.155,4.332Z" transform="translate(-155.194 -213.892)" fill="#ec7d5a"/>
        <path id="Path_4512" data-name="Path 4512" d="M215.251,253.967l-1.043-4.487-40.654,10.144-.155,4.332Z" transform="translate(-155.194 -213.892)" fill="#ce6041"/>
        <path id="Path_4513" data-name="Path 4513" d="M222.865,252.39l-4.995.944V255.9l5.192-1.493Z" transform="translate(-168.337 -214.752)" fill="#ec7d5a"/>
        <path id="Path_4514" data-name="Path 4514" d="M173.552,266.612l40.879-11.342,24.388,9.855.162,2.064-33.511,10.792-32.081-7.023Z" transform="translate(-155.191 -215.603)" fill="#c0543a"/>
        <path id="Path_4515" data-name="Path 4515" d="M215.484,259.729l23.472,7.467.028-.007-.162-2.064-24.388-9.855-40.879,11.342-.155,4.339Z" transform="translate(-155.194 -215.603)" fill="#ec7d5a"/>
        <path id="Path_4516" data-name="Path 4516" d="M215.484,259.729l-1.05-4.459-40.879,11.342-.155,4.339Z" transform="translate(-155.194 -215.603)" fill="#ce6041"/>
        <path id="Path_4517" data-name="Path 4517" d="M226.34,257.71l-5.03,1.085v2.564l5.22-1.641Z" transform="translate(-169.354 -216.325)" fill="#ec7d5a"/>
        <path id="Path_4518" data-name="Path 4518" d="M184.615,219.986c-.507-1.247-1.409-1.994-2.05-1.677s-.7,1.592-.211,2.818,1.409,1.994,2.05,1.67S185.122,221.233,184.615,219.986Z" transform="translate(-157.744 -204.658)" fill="#fcba83"/>
        <path id="Path_4519" data-name="Path 4519" d="M184.434,220.522c-.331-.81-.93-1.3-1.331-1.092s-.472,1.036-.141,1.846.93,1.3,1.331,1.085S184.765,221.34,184.434,220.522Z" transform="translate(-157.958 -204.997)" fill="#ec7656"/>
        <path id="Path_4520" data-name="Path 4520" d="M184.78,221.961c-.232-.578-.655-.923-.944-.775s-.331.7-.1,1.31.655.923.944.775S185.019,222.531,184.78,221.961Z" transform="translate(-158.205 -205.52)" fill="#fcba83"/>
        <path id="Path_4521" data-name="Path 4521" d="M193.3,216.5c-.148-.7-.514-1.24-.824-1.191s-.437.662-.289,1.367.514,1.233.824,1.184S193.445,217.161,193.3,216.5Z" transform="translate(-160.727 -203.792)" fill="#614849"/>
        <path id="Path_4522" data-name="Path 4522" d="M201.133,216.6c-.035-.7-.31-1.3-.627-1.3s-.542.564-.507,1.275.31,1.3.627,1.3S201.168,217.315,201.133,216.6Z" transform="translate(-163.054 -203.79)" fill="#614849"/>
        <path id="Path_4523" data-name="Path 4523" d="M192.323,211.279l-2.113.789a.564.564,0,0,0-.3.7l.19.578a.5.5,0,0,0,.641.352l2.113-.789a.564.564,0,0,0,.3-.7l-.183-.578a.507.507,0,0,0-.648-.352Z" transform="translate(-160.063 -202.595)" fill="#8f3c2a"/>
        <path id="Path_4524" data-name="Path 4524" d="M200.787,211.986l-1.888-.43c-.232-.056-.423.141-.43.444v.571a.634.634,0,0,0,.409.641l1.888.43c.232.049.423-.148.43-.444v-.592a.634.634,0,0,0-.409-.62Z" transform="translate(-162.602 -202.681)" fill="#8f3c2a"/>
        <path id="Path_4525" data-name="Path 4525" d="M197.088,218.4s-.085.113-.2.3c.416,1.05.838,2.818-.7,2.311a.863.863,0,0,0,0,.134C198.778,222.38,197.461,219.069,197.088,218.4Z" transform="translate(-161.925 -204.707)" fill="#ec7656"/>
        <path id="Path_4526" data-name="Path 4526" d="M198.182,224.39a2.29,2.29,0,0,1,0,.38,2.17,2.17,0,0,1-2.374,2.156,2.515,2.515,0,0,1-1.958-2.473Z" transform="translate(-161.238 -206.477)" fill="#4a2f37"/>
        <path id="Path_4527" data-name="Path 4527" d="M197.744,225.741a1.684,1.684,0,0,0,.254-.782,2.032,2.032,0,0,0,0-.289H194.25a2.113,2.113,0,0,0,.373,1.057Z" transform="translate(-161.356 -206.56)" fill="#f8ead7"/>
        <path id="Path_4528" data-name="Path 4528" d="M155.9,274.9c7.5-2.5,25.811,0,25.811,0l-.155,6.108s-21.993,15.73-27.185,14.512S150.4,276.756,155.9,274.9Z" transform="translate(-148.591 -221.078)" fill="#ffe6be"/>
        <path id="Path_4529" data-name="Path 4529" d="M175.682,274.45a32.622,32.622,0,0,1-11.046,3.015,33.645,33.645,0,0,1-11.025-.387c-3.41,5.086-3.572,17.611.789,18.64,5.192,1.219,27.185-14.512,27.185-14.512l.155-6.108S179.2,274.753,175.682,274.45Z" transform="translate(-148.599 -221.272)" fill="#f9d5a0"/>
        <path id="Path_4530" data-name="Path 4530" d="M206.253,275.849c-.7.042-10.567,1.93-15.1,4.755a33.109,33.109,0,0,0,8.714-.268c2.473-.458,7.418-2.952,7.622-3.565S206.965,275.806,206.253,275.849Z" transform="translate(-160.44 -221.684)" fill="#f89c68"/>
        <path id="Path_4531" data-name="Path 4531" d="M209.111,272.651c-.923.12-5.121,2.677-8.221,3.226l.331,1.944c2.663-.648,8.862-3.346,9.278-4.121S210.048,272.531,209.111,272.651Z" transform="translate(-163.318 -220.734)" fill="#f89c68"/>
        <path id="Path_4532" data-name="Path 4532" d="M205.836,271.439c-.93.12-5.128,2.67-8.221,3.219l-1.346,2.818,2.113-.268c2.663-.641,8.066-4,8.489-4.776S206.766,271.312,205.836,271.439Z" transform="translate(-161.953 -220.375)" fill="#f89c68"/>
        <path id="Path_4533" data-name="Path 4533" d="M200.812,271.643c-4.868,2.733-5.417,6.037-5.417,6.037l-5.065-1.86c3.522-4.741,4.783-2.113,10-6.213C201.087,269,202.475,270.706,200.812,271.643Z" transform="translate(-160.197 -219.803)" fill="#f89c68"/>
        <path id="Path_4534" data-name="Path 4534" d="M188.729,284.427l4.537-3.339-.085-7.538-6.6.324Z" transform="translate(-159.089 -221.006)" fill="#61474f"/>
      </g>
    </g>
  </g>
</svg>
