<svg xmlns="http://www.w3.org/2000/svg" xmlns:xlink="http://www.w3.org/1999/xlink" width="161.579" height="161.697" viewBox="0 0 161.579 171.697">
  <defs>
    <linearGradient id="linear-gradient" x1="-3.957" y1="0.5" x2="-2.957" y2="0.5" gradientUnits="objectBoundingBox">
      <stop offset="0" stop-color="#efe7df"/>
      <stop offset="0.57" stop-color="#9bb6a1"/>
      <stop offset="0.66" stop-color="#9fb8a4"/>
      <stop offset="0.76" stop-color="#abbfad"/>
      <stop offset="0.85" stop-color="#bfcbbc"/>
      <stop offset="0.94" stop-color="#dbdbd0"/>
      <stop offset="1" stop-color="#efe7df"/>
    </linearGradient>
    <linearGradient id="linear-gradient-2" x1="-6.459" y1="0.006" x2="-6.557" y2="1.211" gradientUnits="objectBoundingBox">
      <stop offset="0" stop-color="#737568"/>
      <stop offset="1" stop-color="#32372d"/>
    </linearGradient>
    <linearGradient id="linear-gradient-3" x1="-17.1" y1="0.347" x2="-15.128" y2="0.598" xlink:href="#linear-gradient"/>
    <linearGradient id="linear-gradient-4" x1="-46.872" y1="1.194" x2="-45.495" y2="0.205" gradientUnits="objectBoundingBox">
      <stop offset="0" stop-color="#efe7df"/>
      <stop offset="1" stop-color="#9bb6a1"/>
    </linearGradient>
    <linearGradient id="linear-gradient-5" x1="-2.295" y1="-0.087" x2="-2.021" y2="0.387" gradientUnits="objectBoundingBox">
      <stop offset="0" stop-color="#f36d32"/>
      <stop offset="1" stop-color="#dc1e38"/>
    </linearGradient>
    <linearGradient id="linear-gradient-6" x1="-9.899" y1="0.127" x2="-8.71" y2="1.187" xlink:href="#linear-gradient-5"/>
    <linearGradient id="linear-gradient-7" x1="-9.764" y1="1.933" x2="-9.474" y2="0.512" gradientUnits="objectBoundingBox">
      <stop offset="0" stop-color="#f9e4a5"/>
      <stop offset="0.31" stop-color="#a3956c"/>
      <stop offset="0.65" stop-color="#4c4633"/>
      <stop offset="0.89" stop-color="#16140f"/>
      <stop offset="1" stop-color="#010101"/>
    </linearGradient>
    <linearGradient id="linear-gradient-8" x1="-8.969" y1="0.723" x2="-8.733" y2="0.034" xlink:href="#linear-gradient-5"/>
    <linearGradient id="linear-gradient-9" x1="-7.638" y1="0.28" x2="-6.345" y2="1.458" xlink:href="#linear-gradient-5"/>
    <linearGradient id="linear-gradient-10" x1="-3.662" y1="0.168" x2="-3.576" y2="0.988" xlink:href="#linear-gradient"/>
    <linearGradient id="linear-gradient-11" x1="-7.207" y1="0.283" x2="-6.326" y2="0.603" xlink:href="#linear-gradient-5"/>
    <linearGradient id="linear-gradient-12" x1="-15.679" y1="0.108" x2="-15.272" y2="1.23" xlink:href="#linear-gradient-5"/>
    <linearGradient id="linear-gradient-13" x1="-31.997" y1="1.549" x2="-31.031" y2="-0.213" xlink:href="#linear-gradient-7"/>
    <linearGradient id="linear-gradient-14" x1="-40.03" y1="-0.379" x2="-39.24" y2="0.242" xlink:href="#linear-gradient-5"/>
    <linearGradient id="linear-gradient-15" x1="-9.734" y1="-3.884" x2="-8.954" y2="-3.376" xlink:href="#linear-gradient-5"/>
    <linearGradient id="linear-gradient-16" x1="-18.126" y1="2.426" x2="-17.193" y2="0.246" xlink:href="#linear-gradient-7"/>
    <linearGradient id="linear-gradient-17" x1="-8.267" y1="1.337" x2="-7.803" y2="0.006" xlink:href="#linear-gradient-7"/>
    <linearGradient id="linear-gradient-18" x1="-8.646" y1="-0.059" x2="-7.986" y2="0.46" gradientUnits="objectBoundingBox">
      <stop offset="0" stop-color="#f36d32"/>
      <stop offset="1" stop-color="#cd2032"/>
    </linearGradient>
    <linearGradient id="linear-gradient-19" x1="-6.459" y1="0.006" x2="-6.557" y2="1.211" xlink:href="#linear-gradient-2"/>
    <linearGradient id="linear-gradient-20" x1="-17.1" y1="0.346" x2="-15.128" y2="0.598" xlink:href="#linear-gradient"/>
    <linearGradient id="linear-gradient-21" x1="-46.875" y1="1.194" x2="-45.497" y2="0.206" xlink:href="#linear-gradient-4"/>
    <linearGradient id="linear-gradient-22" x1="-26.362" y1="0.367" x2="-25.732" y2="0.665" xlink:href="#linear-gradient"/>
    <linearGradient id="linear-gradient-23" x1="-8.156" y1="0.499" x2="-7.156" y2="0.499" xlink:href="#linear-gradient-5"/>
    <linearGradient id="linear-gradient-24" x1="-9.698" y1="0.208" x2="-8.955" y2="1.705" xlink:href="#linear-gradient-5"/>
    <linearGradient id="linear-gradient-25" x1="-16.753" y1="1.578" x2="-15.378" y2="0.103" gradientUnits="objectBoundingBox">
      <stop offset="0" stop-color="#f9e4a5"/>
      <stop offset="0.09" stop-color="#eeda9e"/>
      <stop offset="0.24" stop-color="#d1bf8b"/>
      <stop offset="0.44" stop-color="#a2946b"/>
      <stop offset="0.69" stop-color="#615840"/>
      <stop offset="0.96" stop-color="#0e0d0a"/>
      <stop offset="1" stop-color="#010101"/>
    </linearGradient>
    <linearGradient id="linear-gradient-26" x1="-4.797" y1="-0.139" x2="-4.558" y2="1.165" xlink:href="#linear-gradient-2"/>
    <linearGradient id="linear-gradient-27" x1="-12.578" y1="0.989" x2="-11.292" y2="0.19" xlink:href="#linear-gradient-2"/>
    <radialGradient id="radial-gradient" cx="0.279" cy="0.022" r="0.978" gradientTransform="translate(0.151) scale(1.024 1)" gradientUnits="objectBoundingBox">
      <stop offset="0" stop-color="#faa62d"/>
      <stop offset="0.99" stop-color="#e56d25"/>
    </radialGradient>
    <linearGradient id="linear-gradient-28" x1="-7.776" y1="0.498" x2="-6.775" y2="0.498" xlink:href="#linear-gradient-2"/>
    <linearGradient id="linear-gradient-29" x1="-16.025" y1="1.797" x2="-14.853" y2="-0.137" gradientUnits="objectBoundingBox">
      <stop offset="0" stop-color="#356045"/>
      <stop offset="0.19" stop-color="#2a4c36"/>
      <stop offset="0.73" stop-color="#0c1610"/>
      <stop offset="1" stop-color="#010101"/>
    </linearGradient>
    <linearGradient id="linear-gradient-30" x1="-13.113" y1="0.461" x2="-10.725" y2="0.526" xlink:href="#linear-gradient-7"/>
    <linearGradient id="linear-gradient-31" x1="-16.83" y1="-0.105" x2="-16.182" y2="0.997" xlink:href="#linear-gradient"/>
    <linearGradient id="linear-gradient-32" x1="-7.746" y1="-0.14" x2="-7.625" y2="0.859" xlink:href="#linear-gradient-5"/>
    <linearGradient id="linear-gradient-33" x1="-16.925" y1="-0.726" x2="-17.215" y2="1.668" xlink:href="#linear-gradient-2"/>
    <linearGradient id="linear-gradient-34" x1="-56.223" y1="-0.993" x2="-56.275" y2="1.247" xlink:href="#linear-gradient-5"/>
    <linearGradient id="linear-gradient-35" x1="-103.658" y1="-1.066" x2="-104.846" y2="2.198" xlink:href="#linear-gradient-2"/>
    <linearGradient id="linear-gradient-36" x1="-164.414" y1="-1.23" x2="-166.715" y2="2.36" xlink:href="#linear-gradient-2"/>
    <linearGradient id="linear-gradient-37" x1="-9.806" y1="-0.951" x2="-9.802" y2="0.583" gradientUnits="objectBoundingBox">
      <stop offset="0" stop-color="#f36d32"/>
      <stop offset="1" stop-color="#c9202f"/>
    </linearGradient>
    <linearGradient id="linear-gradient-38" x1="-29.292" y1="-1.039" x2="-27.246" y2="1.148" xlink:href="#linear-gradient-7"/>
    <linearGradient id="linear-gradient-39" x1="-266.09" y1="0.497" x2="-265.09" y2="0.497" xlink:href="#linear-gradient-29"/>
    <linearGradient id="linear-gradient-40" x1="-20.899" y1="0.661" x2="-22.027" y2="0.407" xlink:href="#linear-gradient-29"/>
    <linearGradient id="linear-gradient-41" x1="-18.245" y1="1.324" x2="-18.812" y2="-0.204" xlink:href="#linear-gradient-7"/>
    <linearGradient id="linear-gradient-42" x1="-21.381" y1="-0.389" x2="-20.799" y2="1.047" gradientUnits="objectBoundingBox">
      <stop offset="0" stop-color="#badc9e"/>
      <stop offset="1" stop-color="#56bfa9"/>
    </linearGradient>
    <linearGradient id="linear-gradient-43" x1="-24.709" y1="1.603" x2="-24.641" y2="-0.079" xlink:href="#linear-gradient-7"/>
  </defs>
  <g id="Group_1425" data-name="Group 1425" transform="translate(-323.786 -573.419)">
    <g id="Group_1187" data-name="Group 1187" transform="translate(323.786 573.419)">
      <path id="Path_4367" data-name="Path 4367" d="M537.6,245.451c-17.674-4.9-73.406-5.366-96.278,11.82-22.688,17.05-36.187,55.692-20.521,72.438,10.692,11.428,32.436,14.267,38.45,29.541,5.878,14.915,21.976,19,44.264,18.457,46.855-1.136,62.881-5.006,69.047-31.613,5.2-22.44,4-37.067-5.454-54.2C559.74,278.511,576.582,256.255,537.6,245.451Z" transform="translate(-414.041 -206.057)" fill="#f2e3d7"/>
      <g id="Group_1181" data-name="Group 1181" transform="translate(13.847 0)">
        <line id="Line_32" data-name="Line 32" transform="translate(72.601 139.198)" fill="none" stroke="#aeaead" stroke-linecap="round" stroke-miterlimit="10" stroke-width="2"/>
        <path id="Path_4369" data-name="Path 4369" d="M554.706,299.46a207.029,207.029,0,0,0-28.206,7.789,239.71,239.71,0,0,1,31.189,7.381,283.813,283.813,0,0,1,29.046-9.381,220.862,220.862,0,0,0-32.029-5.79Zm26.087,5.846-.592.168-1.735.472-26.615-4.454c.848-.184,1.687-.352,2.5-.5C562.431,301.851,571.444,303.451,580.793,305.306Zm-36.7-2.031q2.767-.7,5.342-1.288l25.775,4.862c-1.544.44-3.063.9-4.574,1.352Zm23.592,5.854q-2.223.7-4.382,1.456l-26.447-5.39c1.671-.456,3.3-.9,4.9-1.32ZM530.9,307.089l-.488-.088q2.063-.6,4.071-1.16l26.111,5.67-2.767,1.008Z" transform="translate(-450.413 -217.466)" fill="#638b75"/>
        <path id="Path_4370" data-name="Path 4370" d="M568.288,316.93c-.32.1-5.6,8.8-5.6,8.8l2.439,2.767,7.2-12.643Z" transform="translate(-457.661 -220.748)" fill="#506e55"/>
        <path id="Path_4371" data-name="Path 4371" d="M586.694,306l-.48,1.647a216.248,216.248,0,0,0-28.47,10.2c-8.933-3.055-19.425-5.926-30.805-8.653l-.44-1.24,4.43-.152,26.926,5.43q10.532-3.919,22.344-7.053Z" transform="translate(-450.413 -218.776)" fill="#638b75"/>
        <path id="Path_4372" data-name="Path 4372" d="M554.706,298.73a207.029,207.029,0,0,0-28.206,7.789,239.709,239.709,0,0,1,31.189,7.381,283.829,283.829,0,0,1,29.046-9.381,220.858,220.858,0,0,0-32.029-5.79Zm26.087,5.814-.592.168-1.735.472L551.851,300.7c.848-.184,1.687-.352,2.5-.5C562.431,301.121,571.444,302.721,580.793,304.544Zm-36.7-2q2.767-.7,5.342-1.288l25.775,4.886c-1.544.44-3.063.9-4.574,1.352Zm23.592,5.854q-2.223.712-4.382,1.456l-26.447-5.39c1.671-.456,3.3-.9,4.9-1.32ZM530.9,306.367l-.488-.088q2.063-.6,4.071-1.16l26.111,5.67-2.767,1.008Z" transform="translate(-450.413 -217.32)" fill="url(#linear-gradient)"/>
        <ellipse id="Ellipse_367" data-name="Ellipse 367" cx="17.026" cy="13.219" rx="17.026" ry="13.219" transform="matrix(0.384, -0.923, 0.923, 0.384, 72.802, 140.642)" fill="url(#linear-gradient-2)"/>
        <ellipse id="Ellipse_368" data-name="Ellipse 368" cx="13.979" cy="9.397" rx="13.979" ry="9.397" transform="translate(81.568 141.746) rotate(-74.13)" fill="#424032"/>
        <path id="Path_4373" data-name="Path 4373" d="M554.762,357.447a3.356,3.356,0,0,1-.08.568c-.848,5.6-4.718,10.132-8.645,10.116a4.662,4.662,0,0,1-1.919-.408c-2.767-1.232-4.335-5.134-3.639-9.749a15.589,15.589,0,0,1,1.383-4.43c1.663-3.375,4.446-5.694,7.261-5.686a1.3,1.3,0,0,1,.248,0C553.026,348.058,555.353,352.233,554.762,357.447Z" transform="translate(-453.179 -227.158)" fill="url(#linear-gradient-3)"/>
        <path id="Path_4374" data-name="Path 4374" d="M553.01,357.625c-.848,5.6-4.718,10.124-8.645,10.108h-.248c-2.767-1.232-4.334-5.134-3.639-9.749.848-5.6,4.718-10.132,8.645-10.116a1.3,1.3,0,0,1,.248,0C552.147,349.1,553.714,353.011,553.01,357.625Z" transform="translate(-453.179 -227.16)" fill="#638b75"/>
        <path id="Path_4375" data-name="Path 4375" d="M544.412,362.481c1.743,3.087,4.063-1.807,4.31-3.351.16-1.024.168-2.615-.584-3.431a2.175,2.175,0,0,0-1.9-.656,2.9,2.9,0,0,0-2.087,1.839,6.742,6.742,0,0,0,.264,5.6Z" transform="translate(-453.85 -228.594)" fill="#506e55"/>
        <path id="Path_4376" data-name="Path 4376" d="M545.711,362.681c1.743,3.087,4.055-1.807,4.3-3.351.16-1.024.168-2.615-.584-3.431a2.159,2.159,0,0,0-1.9-.656,2.91,2.91,0,0,0-2.087,1.839A6.741,6.741,0,0,0,545.711,362.681Z" transform="translate(-454.109 -228.633)" fill="url(#linear-gradient-4)"/>
        <path id="Path_4377" data-name="Path 4377" d="M550.416,342.372A50.476,50.476,0,0,1,535.758,355.3a55.9,55.9,0,0,1-8.909,4.27,200.274,200.274,0,0,1-23.511,6.582,95.96,95.96,0,0,1-12.947,2c-3.471.28-7.853.96-11.252,0-1.224-.352-2.519-.744-3.855-1.168-5.774-1.839-12.252-4.422-16.426-8.125a19.911,19.911,0,0,1-1.424-1.423,43.227,43.227,0,0,1-3.391-9.2c-1.951-7.789-2.015-16.114-1.535-24.031.216-3.439.584-6.87,1.12-10.268a7.853,7.853,0,0,1,3.471-5.47,10.314,10.314,0,0,1,1.272-.728h0c6.1-1.088,13.123.56,19.145,3.727,2.471,1.3,3.071,5.4,2.839,7.877-.368,4-.752,8-.992,12q-.64,11-.288,22.048c0,.8.056,1.543.088,2.319a20.409,20.409,0,0,0,6.654,8.6,99.779,99.779,0,0,0,22.864-3.431,16.1,16.1,0,0,0,1.44-1.6c.112-.128.216-.264.328-.4l.256-.336a32.928,32.928,0,0,0,2.479-3.783c.128-.224.256-.448.376-.68s.24-.456.352-.68.224-.464.336-.7.12-.264.176-.4l.2-.44c.072-.176.144-.352.208-.528a82.053,82.053,0,0,0-2.615-19.193,45.889,45.889,0,0,0-1.671-5.038l-.072-.2,1.432-.424c8.8-2.631,17.474-5.406,26.287-8a2.885,2.885,0,0,1,2.4.856,5.29,5.29,0,0,1,1,1.16c.192.272.352.544.512.8A72.344,72.344,0,0,1,550.416,342.372Z" transform="translate(-435.543 -219.056)" fill="url(#linear-gradient-5)"/>
        <path id="Path_4378" data-name="Path 4378" d="M474.566,354.414c-1.6,2.727-4.75,4.286-7.885,4.8a28.119,28.119,0,0,1-7.813-.112,19.93,19.93,0,0,1-1.423-1.423A50.417,50.417,0,0,1,452.47,338a103.566,103.566,0,0,1,.048-13.6c.216-3.439.584-6.87,1.12-10.268a7.853,7.853,0,0,1,3.471-5.47c.448.408.92.856,1.447,1.288a16.73,16.73,0,0,0,8.293,3.615c2.591.352,5.6.208,7.405,2.087,1.559,1.6,1.671,4.071,1.687,6.3l.12,17.154.048,6.534C476.125,348.672,476.109,351.839,474.566,354.414Z" transform="translate(-435.545 -219.31)" fill="url(#linear-gradient-6)"/>
        <path id="Path_4379" data-name="Path 4379" d="M476.042,339.155A79.717,79.717,0,0,1,452.45,338a103.567,103.567,0,0,1,.048-13.6c.216-3.439.584-6.87,1.12-10.268a7.853,7.853,0,0,1,3.471-5.47c.448.408.92.856,1.448,1.287a16.73,16.73,0,0,0,8.293,3.615c2.591.352,5.6.208,7.405,2.087,1.559,1.6,1.671,4.071,1.687,6.3Z" transform="translate(-435.541 -219.31)" fill="url(#linear-gradient-7)"/>
        <path id="Path_4380" data-name="Path 4380" d="M524.223,355.292c-.064.176-.136.352-.208.528s-.128.3-.2.44-.112.272-.176.4-.216.464-.336.7-.224.456-.352.68-.248.456-.376.68A32.92,32.92,0,0,1,520.1,362.5l-.256.336c-.112.136-.216.272-.328.4-7.341-2.071-14.459-4.606-20.433-9.429a94.851,94.851,0,0,0,5.926-23.815c.112-1.008.216-1.991.3-2.959l14.635,4.063a45.873,45.873,0,0,1,1.672,5.038,82.052,82.052,0,0,1,2.615,19.161Z" transform="translate(-444.921 -222.988)" fill="url(#linear-gradient-8)"/>
        <path id="Path_4381" data-name="Path 4381" d="M496.416,360.52l-.24.576a76.254,76.254,0,0,1-10.4,2.935c0,.8.056,1.543.088,2.319a20.408,20.408,0,0,0,6.654,8.6,99.78,99.78,0,0,0,22.864-3.431,17.173,17.173,0,0,0,1.439-1.6C509.508,367.861,502.39,365.334,496.416,360.52Z" transform="translate(-442.257 -229.695)" fill="url(#linear-gradient-9)"/>
        <path id="Path_4382" data-name="Path 4382" d="M517.373,352.106a28.5,28.5,0,0,1-5.766,9.069,89.927,89.927,0,0,1-25.231,4.486,21.737,21.737,0,0,1-7.581-10.4q-.1-8.181.256-16.362c.256-5.726,1.144-11.516.712-17.21-.24-3.311-.112-7.533-2.911-9.317a30.054,30.054,0,0,0-16.922-4.67h0c6.1-1.088,13.123.56,19.145,3.727,2.471,1.3,3.071,5.4,2.839,7.877-.368,4-.752,8-.992,12q-.64,11-.288,22.048c0,.8.056,1.543.088,2.319a20.409,20.409,0,0,0,6.654,8.6,99.782,99.782,0,0,0,22.864-3.431,16.09,16.09,0,0,0,1.44-1.6c.112-.128.216-.264.328-.4l.256-.336a32.931,32.931,0,0,0,2.479-3.783c.128-.224.256-.448.376-.68s.24-.456.352-.68.224-.464.336-.7.12-.264.176-.4l.2-.44c.072-.176.144-.352.208-.528a82.05,82.05,0,0,0-2.615-19.193,45.9,45.9,0,0,0-1.671-5.038l-.072-.2,1.431-.424c.592,1.767,1.136,3.639,1.6,5.542C516.838,339.183,517.733,346.86,517.373,352.106Z" transform="translate(-437.079 -219.05)" fill="url(#linear-gradient-10)"/>
        <path id="Path_4383" data-name="Path 4383" d="M571.577,346.516c-3.927,6.854-12.228,13.187-17.93,16.594a20.813,20.813,0,0,1-9.6-.32c-.48-.424-.992-.88-1.5-1.375a16.988,16.988,0,0,1-3.2-4c-.056-.1-.112-.2-.16-.3a10.309,10.309,0,0,1-.96-2.887c-.864-5.086.264-10.012,2.447-14.7,1.7-3.647,5.974-4.982,9.78-6.27a57.917,57.917,0,0,1,11.364-2.447,17.589,17.589,0,0,1,3.079,2.143,17.812,17.812,0,0,1,2.3,2.4c.056.072.112.136.16.208A20.84,20.84,0,0,1,571.577,346.516Z" transform="translate(-452.705 -223.745)" fill="url(#linear-gradient-11)"/>
        <path id="Path_4384" data-name="Path 4384" d="M471.52,358.751c-1-.408-1.983-.8-2.935-1.232a30.643,30.643,0,0,1-5.278-2.839c-2.591-1.775-4.966-4.087-5.6-7.157a57.476,57.476,0,0,1-.12-21.144c.5-2.887,1.112-6.846,3.871-8.445a6.126,6.126,0,0,1,4-.752,5.951,5.951,0,0,1,1.368.4c4.742,2.111,3.335,10.212,3.351,14.283q0,6.878-.08,13.755a38.533,38.533,0,0,0,.056,6.3C470.529,354.209,471.064,356.472,471.52,358.751Z" transform="translate(-436.426 -221.001)" fill="url(#linear-gradient-12)"/>
        <path id="Path_4385" data-name="Path 4385" d="M457.729,337.651c0,.88.16,1.959.984,2.255a1.511,1.511,0,0,0,1.663-.72,4.694,4.694,0,0,0,.544-1.871,52.368,52.368,0,0,1,3.423-12.22c.608-1.439,1.48-3.823.224-5.214a2.239,2.239,0,0,0-2.951,0,5.679,5.679,0,0,0-1.647,2.735A48.174,48.174,0,0,0,457.729,337.651Z" transform="translate(-436.638 -221.445)" fill="url(#linear-gradient-13)"/>
        <path id="Path_4386" data-name="Path 4386" d="M457.675,347.5a47.107,47.107,0,0,1-1.256-9.037,57.159,57.159,0,0,1,.384-9.133c.192-1.511.448-3.015.736-4.51a16.371,16.371,0,0,1,1.367-4.406,6.957,6.957,0,0,1,1.391-1.879,5.533,5.533,0,0,1,1.991-1.2,5.966,5.966,0,0,1,4.5.224,6.03,6.03,0,0,0-4.39.056,5.43,5.43,0,0,0-1.831,1.2,6.556,6.556,0,0,0-1.232,1.815,17.437,17.437,0,0,0-1.24,4.294c-.272,1.487-.5,2.983-.68,4.486a63.187,63.187,0,0,0-.52,9.037c0,1.511.1,3.023.232,4.534S457.435,346,457.675,347.5Z" transform="translate(-436.368 -220.978)" fill="#f89946"/>
        <path id="Path_4387" data-name="Path 4387" d="M473.728,358.771c-1-.408-1.983-.8-2.935-1.232-1.032-3.047-.984-6.4-.888-9.6.248-7.781.8-15.554.5-23.32a13.6,13.6,0,0,0-.8-4.91,8.963,8.963,0,0,0-1.919-2.5,5.945,5.945,0,0,1,1.368.4c4.742,2.111,3.335,10.212,3.351,14.283q0,6.878-.08,13.755a38.54,38.54,0,0,0,.056,6.3C472.736,354.229,473.272,356.492,473.728,358.771Z" transform="translate(-438.634 -221.021)" fill="url(#linear-gradient-14)"/>
        <path id="Path_4388" data-name="Path 4388" d="M561.869,330.8a17.907,17.907,0,0,1,3.079,2.143,53.821,53.821,0,0,0-13.2,6.726,39.435,39.435,0,0,0-3.479,14.187c-.12,2.215,1.248,6.894-1.759,7.525a10.867,10.867,0,0,1-3.951,0,13.381,13.381,0,0,1-4.278-7.2c-.864-5.1.264-10.02,2.447-14.707,1.7-3.647,5.974-4.982,9.78-6.278a58.485,58.485,0,0,1,11.364-2.4Z" transform="translate(-452.713 -223.743)" fill="url(#linear-gradient-15)"/>
        <path id="Path_4389" data-name="Path 4389" d="M459.571,338.78l1.28.288-.2,8.037c-.384-.16-.8-.336-1.168-.528A28.285,28.285,0,0,1,459.571,338.78Zm2.4.528-.192,8.229c.48.176.952.328,1.432.48l.544-8.333Zm2.887.616-.544,8.4c.6.16,1.208.3,1.839.432.256-2.815.12-5.6.376-8.453Z" transform="translate(-436.944 -225.341)" fill="#8c191c"/>
        <path id="Path_4390" data-name="Path 4390" d="M542.5,339.823a23.108,23.108,0,0,0-2.983,14.971c.312,1.783,1.008,2.359,2.791,2.4a2.49,2.49,0,0,0,2.791-2.263c.6-6.278,1.959-13.411,6.4-18.177.92-.976,2.143-2.271,0-2.039a19.762,19.762,0,0,0-4.662,1.519A8.461,8.461,0,0,0,542.5,339.823Z" transform="translate(-452.966 -224.521)" fill="url(#linear-gradient-16)"/>
        <path id="Path_4391" data-name="Path 4391" d="M566.664,349.146a28.467,28.467,0,0,1,2.4,5.79c-.568.424-1.152.8-1.759,1.216-.72-2.055-1.264-4.039-1.983-6.094A7.426,7.426,0,0,0,566.664,349.146Zm1-.8a28.356,28.356,0,0,1,2.487,5.75c.376-.3.744-.624,1.1-.944a21.969,21.969,0,0,0-2.687-5.6,6.436,6.436,0,0,1-.872.816Zm1.823-1.655a23.194,23.194,0,0,1,2.767,5.518c.336-.328.656-.664.968-1.008a16.186,16.186,0,0,0-2.559-5.678c-.368.392-.744.8-1.144,1.192Zm2.607-3.071c-.208.288-.416.576-.64.848a17.591,17.591,0,0,1,2.759,5.6l.68-.856a21.251,21.251,0,0,0-2.767-5.566Z" transform="translate(-458.188 -226.31)" fill="#8c191c"/>
        <path id="Path_4392" data-name="Path 4392" d="M558.307,354.15v.112l-.088.08a39.653,39.653,0,0,1-4.286,3.2,25.489,25.489,0,0,1-2.311,1.336,12.185,12.185,0,0,1-2.5,1.016h0a38.054,38.054,0,0,1-9.4-1.319c-.056-.1-.112-.2-.16-.3a38.265,38.265,0,0,0,9.517,1.28h0a11.374,11.374,0,0,0,2.4-1,24.492,24.492,0,0,0,2.263-1.352,39.037,39.037,0,0,0,4.127-3.119c-.12-1.6-.2-3.247-.232-4.886a42.133,42.133,0,0,1,.168-5.022v-.064l.056-.048c1.6-1.375,3.2-2.751,4.854-4.07a50.594,50.594,0,0,1,4.846-3.447c.056.072.112.136.16.208a78.062,78.062,0,0,0-9.557,7.533,40.219,40.219,0,0,0-.12,4.91C558.107,350.823,558.235,352.486,558.307,354.15Z" transform="translate(-453.03 -224.892)" fill="url(#linear-gradient-17)"/>
        <path id="Path_4393" data-name="Path 4393" d="M539.412,357.776a36.715,36.715,0,0,0,9.549,1.311h-.048a11.9,11.9,0,0,0,2.4-.992,22.731,22.731,0,0,0,2.223-1.336,38.992,38.992,0,0,0,4.111-3.135l-.08.184c-.112-1.639-.2-3.287-.224-4.934a42.679,42.679,0,0,1,.16-4.95v-.08l.056-.048c1.6-1.352,3.135-2.711,4.75-4a51,51,0,0,1,5.07-3.6l.144.208a74.8,74.8,0,0,0-9.716,7.677l.064-.12a41.82,41.82,0,0,0-.12,4.9c.056,1.6.176,3.279.264,4.918v.12l-.08.072a40.055,40.055,0,0,1-4.2,3.135c-.736.472-1.487.92-2.263,1.328a11.886,11.886,0,0,1-2.447.992h-.048a37.847,37.847,0,0,1-9.6-1.415Z" transform="translate(-452.992 -224.824)" fill="url(#linear-gradient-18)"/>
        <path id="Path_4394" data-name="Path 4394" d="M475.74,376.072c-5.774-1.839-12.252-4.422-16.426-8.125a19.924,19.924,0,0,1-1.423-1.424,43.225,43.225,0,0,1-3.391-9.2c.072-.168.152-.328.232-.488a8.8,8.8,0,0,1,3.247-3.535c1.551-.912,3.271-.288,4.862.28a18.657,18.657,0,0,1,8.341,6.126,24.487,24.487,0,0,1,4.8,13.307,8.476,8.476,0,0,1-.24,3.055Z" transform="translate(-435.992 -228.157)" fill="#e4b4a2"/>
        <ellipse id="Ellipse_369" data-name="Ellipse 369" cx="17.026" cy="13.219" rx="17.026" ry="13.219" transform="matrix(0.384, -0.923, 0.923, 0.384, 0.258, 157.741)" fill="url(#linear-gradient-19)"/>
        <ellipse id="Ellipse_370" data-name="Ellipse 370" cx="13.979" cy="9.397" rx="13.979" ry="9.397" transform="translate(9.007 158.851) rotate(-74.13)" fill="#424032"/>
        <path id="Path_4395" data-name="Path 4395" d="M464.042,378.835a3.6,3.6,0,0,1-.08.568c-.848,5.6-4.718,10.124-8.645,10.116a4.55,4.55,0,0,1-1.919-.416c-2.767-1.224-4.335-5.134-3.639-9.749a15.586,15.586,0,0,1,1.384-4.43c1.663-3.375,4.446-5.686,7.261-5.686a1.3,1.3,0,0,1,.248,0C462.306,369.438,464.633,373.621,464.042,378.835Z" transform="translate(-435.009 -231.44)" fill="url(#linear-gradient-20)"/>
        <path id="Path_4396" data-name="Path 4396" d="M462.29,379.015c-.848,5.6-4.718,10.116-8.645,10.108a1.3,1.3,0,0,1-.248,0c-2.767-1.224-4.335-5.134-3.639-9.749.848-5.6,4.718-10.124,8.645-10.116a1.3,1.3,0,0,1,.248,0C461.427,370.49,462.994,374.393,462.29,379.015Z" transform="translate(-435.009 -231.444)" fill="#638b75"/>
        <path id="Path_4397" data-name="Path 4397" d="M453.693,383.862c1.743,3.095,4.063-1.8,4.31-3.343.16-1.032.168-2.623-.584-3.431a2.208,2.208,0,0,0-1.9-.664,2.9,2.9,0,0,0-2.087,1.847A6.726,6.726,0,0,0,453.693,383.862Z" transform="translate(-435.68 -232.876)" fill="#506e55"/>
        <path id="Path_4398" data-name="Path 4398" d="M454.991,384.062c1.743,3.095,4.055-1.8,4.3-3.343.16-1.032.168-2.623-.584-3.431a2.191,2.191,0,0,0-1.9-.664,2.919,2.919,0,0,0-2.087,1.847,6.725,6.725,0,0,0,.272,5.59Z" transform="translate(-435.94 -232.916)" fill="url(#linear-gradient-21)"/>
        <path id="Path_4399" data-name="Path 4399" d="M464.429,378.835l-1.751.176-5.006.92-1.431-2.223-4.71-2.783c1.663-3.375,4.446-5.686,7.261-5.686a1.294,1.294,0,0,1,.248,0C462.694,369.438,465.021,373.621,464.429,378.835Z" transform="translate(-435.397 -231.44)" fill="#acbdae"/>
        <path id="Path_4400" data-name="Path 4400" d="M465.357,370.135a86.638,86.638,0,0,1-6.966,10.116,1.975,1.975,0,0,1-2.031-1.991,105.568,105.568,0,0,1,5.846-11.1C463.509,367.656,464.421,369.1,465.357,370.135Z" transform="translate(-436.364 -231.025)" fill="url(#linear-gradient-22)"/>
        <path id="Path_4401" data-name="Path 4401" d="M462.914,372.913l.72-.32.72.08.632-.8-3.9-2.7-.32,1.272,1.04,1.352-3.983,8.133.712.152Z" transform="translate(-436.657 -231.428)" fill="#638b75"/>
        <path id="Path_4402" data-name="Path 4402" d="M467.6,371.74c-.04.8-1.3,1.831-2.039,2.135a32.275,32.275,0,0,0-5.718-6.046,7.645,7.645,0,0,0-9.485,0c-1.543,1.208-2.719,2.151-2.719,2.151a12.978,12.978,0,0,1-1.767,0c-2.679-.184-6.118-1.1-7.461-2.783a28.1,28.1,0,0,1,16.258-14.459l.48-.16c2.751-.864,5.6.672,7.533,2.783C466.688,359.664,467.855,365.862,467.6,371.74Z" transform="translate(-432.769 -228.056)" fill="url(#linear-gradient-23)"/>
        <path id="Path_4403" data-name="Path 4403" d="M462.193,358.8a32.252,32.252,0,0,0-16.322,11.244c-2.679-.184-6.118-1.1-7.461-2.783A28.1,28.1,0,0,1,454.668,352.8l.488.04C458.427,353.216,461.65,355.543,462.193,358.8Z" transform="translate(-432.769 -228.149)" fill="url(#linear-gradient-24)"/>
        <path id="Path_4404" data-name="Path 4404" d="M441.742,363.075a10.149,10.149,0,0,0-1.791,3.359,1.912,1.912,0,0,0-.088.992,1.527,1.527,0,0,0,1.048,1.008,2.784,2.784,0,0,0,2.263-.064c.36-.288.632-1.519.84-1.967q.52-1.056,1.128-2.063a25.012,25.012,0,0,1,2.823-3.8c1.967-2.167,4.8-3.567,6.59-5.83-2.4.064-4.622,1.6-6.574,2.863A26.149,26.149,0,0,0,441.742,363.075Z" transform="translate(-433.054 -228.532)" fill="url(#linear-gradient-25)"/>
        <path id="Path_4405" data-name="Path 4405" d="M552.488,323.309h0a143.631,143.631,0,0,1-14.475,7.333,49.445,49.445,0,0,1-13.6,4.175q-.648.088-1.3.12a24,24,0,0,1-3.391,0,21.032,21.032,0,0,1-13.211-6.174c.112-1.008.216-1.991.3-2.959l14.635,4.063-.072-.2,1.432-.424c8.8-2.631,17.474-5.406,26.286-8a2.885,2.885,0,0,1,2.4.856A5.294,5.294,0,0,1,552.488,323.309Z" transform="translate(-446.411 -221.818)" fill="#e4b4a2"/>
        <path id="Path_4406" data-name="Path 4406" d="M548.405,321.274a67.86,67.86,0,0,1-8.549,3.143c-2.927,1.016-5.886,1.935-8.893,2.679-2.6.656-6.038,1.839-8.733,1.6a41.065,41.065,0,0,1-17.114-5.078,18.025,18.025,0,0,1-.408-9.149q0-.088.144-.168c1.024-.688,6.79-1.519,7.589-1.679,2.751-.528,5.526-.912,8.309-1.224,5.43-.584,10.62-1.687,16.154-1.28a47.183,47.183,0,0,1,8,1.519,11.683,11.683,0,0,1,2.7.984,4.439,4.439,0,0,1,2.4,2.855C550.516,317.4,550.444,320.25,548.405,321.274Z" transform="translate(-445.967 -219.583)" fill="url(#linear-gradient-26)"/>
        <path id="Path_4407" data-name="Path 4407" d="M504.863,315.39q-.136.088-.144.168a18.026,18.026,0,0,0,.408,9.149,40.786,40.786,0,0,0,16.738,5.038,49.809,49.809,0,0,0,1.9-8.965A65.145,65.145,0,0,1,504.863,315.39Z" transform="translate(-445.969 -220.656)" fill="url(#linear-gradient-27)"/>
        <path id="Path_4408" data-name="Path 4408" d="M553.464,314.63c-1.6.568-14.395,5.222-23.56,6.214-.584-.056-1.167-.136-1.759-.216a49.787,49.787,0,0,1-1.9,8.965l.376.04c2.7.224,6.134-.96,8.733-1.6,3.007-.744,5.966-1.663,8.893-2.679a67.866,67.866,0,0,0,8.549-3.143c2.015-1.024,2.111-3.879,1.6-5.782A4,4,0,0,0,553.464,314.63Z" transform="translate(-450.362 -220.504)" fill="#424032"/>
        <path id="Path_4409" data-name="Path 4409" d="M548.755,315.37c-.952.4-1.9.8-2.855,1.152a29.087,29.087,0,0,1-2.9,1.048c-1.959.592-3.943,1.144-5.934,1.647a97.344,97.344,0,0,1-12,2.271,4.461,4.461,0,0,1-.248.8c-.208.664-.424,1.32-.632,1.983a36.5,36.5,0,0,0-1.088,4,16.534,16.534,0,0,0,.072-2.951,25.9,25.9,0,0,1,.488-3.823.58.58,0,0,1,0-.16,61.327,61.327,0,0,1-8-1.791c-.744-.216-1.5-.456-2.247-.688a19.768,19.768,0,0,1-2.215-.8c-1.447-.624-2.879-1.256-4.279-1.959,1.487.5,2.967,1,4.47,1.431.752.2,1.479.5,2.223.728s1.479.472,2.223.688a58.862,58.862,0,0,0,9.085,1.935h0a96.819,96.819,0,0,0,12-2.263q2.975-.744,5.9-1.639c.488-.168.984-.28,1.479-.408l1.487-.384Z" transform="translate(-446.493 -220.652)" fill="#888273"/>
        <path id="Path_4410" data-name="Path 4410" d="M529.49,322.26Z" transform="translate(-451.011 -222.032)" fill="#888273"/>
        <path id="Path_4411" data-name="Path 4411" d="M489.154,353.46a39.823,39.823,0,0,1-.064,6.254,3.135,3.135,0,0,0,2.935.136,13.838,13.838,0,0,0-.152-5.03,2.319,2.319,0,0,0-.568-1.376C490.793,352.964,489.818,353.4,489.154,353.46Z" transform="translate(-442.92 -228.233)" fill="#2b4539"/>
        <path id="Path_4412" data-name="Path 4412" d="M486.692,326.8a79.037,79.037,0,0,1,5.694,21.968,4.62,4.62,0,0,1-1.248.712,5.014,5.014,0,0,1-2.639.248,5.437,5.437,0,0,1-1.519-.488c-.432-1.464-.952-2.887-1.519-4.294a149.846,149.846,0,0,1,1.232-18.146Z" transform="translate(-442.193 -222.942)" fill="#3b5f5a"/>
        <path id="Path_4413" data-name="Path 4413" d="M531.912,306.656c-.424.176-.664.44-1.088.616a10.148,10.148,0,0,1-6.8,8.381c-3.807-.888-6.814-3.679-10.724-3.759-9.749-.192-19.433,0-29.189.168l-.336-.536-1.559-1.5-4.382-1.9-.76-.328-.256-3.527a249.725,249.725,0,0,1,33.428-1.735v-.168c.04-.68.1-1.36.136-2.039a112.331,112.331,0,0,1,20.673,3.807A6.95,6.95,0,0,1,531.912,306.656Z" transform="translate(-440.462 -217.64)" fill="#3b5f5a"/>
        <path id="Path_4414" data-name="Path 4414" d="M520.884,309.926a45.3,45.3,0,0,1-10.94-3.135,183.538,183.538,0,0,1-32.109,1.847l-.76-.328-.256-3.527a249.737,249.737,0,0,1,33.428-1.735v-.168c2.343,1.687,4.638,3.439,7.445,3.855-1.152-.1-2.1.16-3.255.056C516.614,307.774,518.733,308.942,520.884,309.926Z" transform="translate(-440.462 -218.151)" fill="#496e6d"/>
        <path id="Path_4415" data-name="Path 4415" d="M493.711,365.651a23.559,23.559,0,0,1-5.23,3.679l-.728.376-.744-1.432-1.232-2.319-.04-1.415v-.968l-.168-.04.16-.112c.184-.136.36-.272.528-.424h0a17.463,17.463,0,0,0-.368-4.646,9.709,9.709,0,0,0,2.623.8,6.466,6.466,0,0,0,.688.088c.2.312.208.72.408,1.032.544-.3,1.016-.184,1.551-.5l.288.32a11.453,11.453,0,0,1,2.3,3.519c.064.144.12.312.184.48A1.6,1.6,0,0,1,493.711,365.651Z" transform="translate(-442.215 -229.261)" fill="#3b5f5a"/>
        <path id="Path_4416" data-name="Path 4416" d="M494.072,366.965a23.561,23.561,0,0,1-5.23,3.679l-.728.376-.744-1.432a16.418,16.418,0,0,0,6.662-4.606l.064-.072c.064.144.12.312.184.48A1.6,1.6,0,0,1,494.072,366.965Z" transform="translate(-442.575 -230.574)" fill="#fff6d1"/>
        <path id="Path_4417" data-name="Path 4417" d="M489.053,364.933c-.408.288-.64.44-1.04.736a11.625,11.625,0,0,0-2.3-.944l-.168-.04.16-.112v-.456a4,4,0,0,1,.536,0A6.038,6.038,0,0,1,489.053,364.933Z" transform="translate(-442.211 -230.414)" fill="#fff6d1"/>
        <path id="Path_4418" data-name="Path 4418" d="M486.754,366.746c-.424.28-.528.488-.944.8l-.04-1.415A8,8,0,0,1,486.754,366.746Z" transform="translate(-442.255 -230.819)" fill="#fff6d1"/>
        <path id="Path_4419" data-name="Path 4419" d="M526.5,293.159l31.077-3,38.562,1.359-36.971,9.837Z" transform="translate(-450.413 -215.603)" fill="#d97727"/>
        <path id="Path_4420" data-name="Path 4420" d="M570.94,286.949l33.124-5.086,1.719-7.733-34.2,5.086Z" transform="translate(-459.313 -212.392)" fill="#f3a747"/>
        <path id="Path_4421" data-name="Path 4421" d="M568.95,297.155l29.693-6.31,1.679-6.406-29.781,4.574H568.95Z" transform="translate(-458.915 -214.457)" fill="#f3a747"/>
        <path id="Path_4422" data-name="Path 4422" d="M531.09,279.216H563.6l34.2-5.086H559.136Z" transform="translate(-451.332 -212.392)" fill="#fcc57a"/>
        <path id="Path_4423" data-name="Path 4423" d="M531.09,280.49l.8,4.886,31.069,2.847.64-7.733Z" transform="translate(-451.332 -213.666)" fill="#d97727"/>
        <path id="Path_4424" data-name="Path 4424" d="M534.1,286.78v5.55l27.87,5.294v-8.141Z" transform="translate(-451.935 -214.926)" fill="#d97727"/>
        <path id="Path_4425" data-name="Path 4425" d="M568.95,291.733l30.885-5.422.488-1.871-29.781,4.574H568.95Z" transform="translate(-458.915 -214.457)" fill="#d97727"/>
        <path id="Path_4426" data-name="Path 4426" d="M526.5,293.91l.64,5.142,32.188,7.125-.16-4.071Z" transform="translate(-450.413 -216.354)" fill="#d97727"/>
        <path id="Path_4427" data-name="Path 4427" d="M567.35,301.7l.16,4.071,35.835-7.125.976-6.782Z" transform="translate(-458.594 -215.944)" fill="#f3a747"/>
        <path id="Path_4428" data-name="Path 4428" d="M601.842,300.55l-1.032,5.718-31.861,5.326v-4.31Z" transform="translate(-458.915 -217.684)" fill="#f3a747"/>
        <path id="Path_4429" data-name="Path 4429" d="M560.808,311.594,529.42,305l-1.12-4.438,31.389,6.95L593.7,300.55,561,308.523Z" transform="translate(-450.773 -217.684)" fill="#d97727"/>
        <path id="Path_4430" data-name="Path 4430" d="M517.413,362.17l-2.983,5.358c.384.68.6,1.28,1.383,1.343a1.664,1.664,0,0,0,1.272-.536,5.141,5.141,0,0,0,.8-1.176l1.072-2a2.4,2.4,0,0,0,.416-1.376C519.276,362.994,518.125,362.53,517.413,362.17Z" transform="translate(-447.995 -230.026)" fill="#2b4539"/>
        <path id="Path_4431" data-name="Path 4431" d="M503.887,254a144.625,144.625,0,0,0-15.307,8.629,13.747,13.747,0,0,1,3.087,7.493c1.3-.424,2.591-.864,3.871-1.3a16.993,16.993,0,0,0,8-5.286C505.526,260.982,505.086,256.839,503.887,254Z" transform="translate(-442.818 -208.361)" fill="#e76124"/>
        <path id="Path_4432" data-name="Path 4432" d="M470.185,274.746c-8.125,1.1-16.586,2.183-24.527,4.231.928.584,2.5,1.4,3.423,1.983a14.048,14.048,0,0,1-.872,7.141,8.22,8.22,0,0,0-2.031.384,16.9,16.9,0,0,1-5.918,4.9,3.929,3.929,0,0,1-.584-.208,6.17,6.17,0,0,0-.752-.312h-.04c-.448-.144-.88-.3-1.3-.48s-.8-.376-1.216-.584a12.13,12.13,0,0,1-3.631-2.967,16.523,16.523,0,0,1-1.32-8c3.015-2.191,6.838-3.159,10.292-4.582,8.173-3.343,16.986-4.87,25.527-7.085a13.043,13.043,0,0,1,4.087-.4c1.9-1.359,3.839-2.671,5.8-3.943a13.747,13.747,0,0,1,3.087,7.493A58.2,58.2,0,0,1,470.185,274.746Z" transform="translate(-431.357 -210.53)" fill="#fecb88"/>
        <path id="Path_4433" data-name="Path 4433" d="M438.235,297.055c-.416-.176-.8-.376-1.216-.584a28.908,28.908,0,0,1-2.4-8.261C435.844,291.113,437.019,294.12,438.235,297.055Z" transform="translate(-432.01 -215.213)" fill="#f09154"/>
        <path id="Path_4434" data-name="Path 4434" d="M441.361,297.863a6.166,6.166,0,0,0-.752-.312q-.624-4.654-.84-9.341C440.41,291.377,440.938,294.632,441.361,297.863Z" transform="translate(-433.042 -215.213)" fill="#f09154"/>
        <path id="Path_4435" data-name="Path 4435" d="M442.154,287.425c-.648-.7-1.28-1.535-1.919-2.239a13.181,13.181,0,0,0-2.607,1.344l-5.558-1.2a50.89,50.89,0,0,1,5.286.368,12.68,12.68,0,0,1,2.591-1.543.855.855,0,0,1,.608-.08.8.8,0,0,1,.352.352,11.77,11.77,0,0,1,1.248,3Z" transform="translate(-431.5 -214.379)" fill="#f09154"/>
        <path id="Path_4436" data-name="Path 4436" d="M538.32,291.859c-.416.456-.384,1.016-.8,1.463.224.5.408.96.632,1.447-7.421,2.087-15.259,1.024-21.24-3.831-.376-.3-.624-.848-.992-1.152a3.75,3.75,0,0,1,1.424-1.312,20.493,20.493,0,0,0,.24-3.431,23.142,23.142,0,0,0-2.487-10.2c-.344-.08-.568-.384-.9-.464.184-.336.416-.7.6-1.032a27.142,27.142,0,0,1-10.132-17.914c1.935-3.583,6.893-6.014,10.884-6.862a15.9,15.9,0,0,1,2.847-.384,20.422,20.422,0,0,1,7.709,1.447,34.452,34.452,0,0,1,11.34,5.886A91.469,91.469,0,0,1,538.32,291.859Z" transform="translate(-446.038 -207.193)" fill="#f8982b"/>
        <path id="Path_4437" data-name="Path 4437" d="M541.14,291.859c-.416.456-.384,1.016-.8,1.463.224.5.408.96.632,1.447-7.421,2.087-15.259,1.024-21.24-3.831-.376-.3-.624-.848-.992-1.152a3.75,3.75,0,0,1,1.424-1.312,20.493,20.493,0,0,0,.24-3.431,28.219,28.219,0,0,1,6.894-1.391c.72-2.535.96-5.79,1.663-8.317a39.03,39.03,0,0,1-9.133-1.671,30.093,30.093,0,0,0,13.515-1.367,49.58,49.58,0,0,1,2.535-15.514c-4.262-1.439-8.589-2.687-12.979-3.711-1.192-.28-2.4-2.583-2.143-3.791a2.877,2.877,0,0,1,.456-1.1,20.422,20.422,0,0,1,7.709,1.447,34.452,34.452,0,0,1,11.34,5.886,91.469,91.469,0,0,1,.88,36.339Z" transform="translate(-448.858 -207.193)" fill="#e76124"/>
        <path id="Path_4438" data-name="Path 4438" d="M505.862,220.912a39.186,39.186,0,0,1-2.4,7.949q-.72,1.663-1.6,3.271a5.446,5.446,0,0,1-1.312,1.743,1.6,1.6,0,0,1-1.224.264,3.039,3.039,0,0,1-1-.3,28.646,28.646,0,0,1-.136-18.505c.48-1.423,2.935-1.823,4.406-1.5a4.526,4.526,0,0,1,3.263,2.831A8.053,8.053,0,0,1,505.862,220.912Z" transform="translate(-444.449 -200.295)" fill="#f8982b"/>
        <path id="Path_4439" data-name="Path 4439" d="M504.476,226.2a29.18,29.18,0,0,1-.632,4.063q-.72,1.663-1.6,3.271a5.447,5.447,0,0,1-1.312,1.743,1.6,1.6,0,0,1-1.224.264h0c-.688-2.255-2.679-16.93,2.823-14.571a3.407,3.407,0,0,1,1.807,2.263A8.535,8.535,0,0,1,504.476,226.2Z" transform="translate(-444.862 -201.693)" fill="#e76124"/>
        <path id="Path_4440" data-name="Path 4440" d="M523.392,252.034a4.639,4.639,0,0,1-1.983,1.344c-.728.256-1.3.56-1.711-.1a18.043,18.043,0,0,1-2.1-4.894,17.038,17.038,0,0,1-.544-3.695c-.336-.352.5-1.184.888-1.471a7.645,7.645,0,0,1,4.67-1.463,1.127,1.127,0,0,1,.664.168,1.248,1.248,0,0,1,.392.848c.312,1.807.744,3.471,1.008,5.278a4.983,4.983,0,0,1-1.28,3.991Z" transform="translate(-448.504 -205.907)" fill="#fecb88"/>
        <path id="Path_4441" data-name="Path 4441" d="M523.392,252.042c-.7-1.192-.648-2.951-1.871-3.623s-2.727.256-3.927,0a17.038,17.038,0,0,1-.544-3.695c-.336-.352.5-1.184.888-1.471a7.645,7.645,0,0,1,4.67-1.463,1.127,1.127,0,0,1,.664.168,1.248,1.248,0,0,1,.392.848c.312,1.807.744,3.471,1.008,5.278a4.982,4.982,0,0,1-1.28,3.959Z" transform="translate(-448.504 -205.915)" fill="#f8ae65"/>
        <path id="Path_4442" data-name="Path 4442" d="M524.864,232.958c-2.519,3.439-5.446,7.2-9.677,7.645a22.5,22.5,0,0,1-12.843-2.615,42.384,42.384,0,0,1-1.935-14.771,41.672,41.672,0,0,1,.408-4.222,18.532,18.532,0,0,1,1.328-4.926,10.444,10.444,0,0,1,2.3-3.295,11.8,11.8,0,0,1,8.757-3.327c5.206.312,9.645,4.414,11.572,9.261S527.911,228.751,524.864,232.958Z" transform="translate(-445.178 -199.034)" fill="#fecb88"/>
        <path id="Path_4443" data-name="Path 4443" d="M521.059,221.68a13.078,13.078,0,0,1-1.727,3.031,35.9,35.9,0,0,1-18.961-.112,41.655,41.655,0,0,1,.408-4.223,18.53,18.53,0,0,1,1.328-4.926,14.844,14.844,0,0,1,7.581-1.04,35.985,35.985,0,0,1,7.525,1.384c1.479.44,3.063,1.088,3.783,2.455A4.335,4.335,0,0,1,521.059,221.68Z" transform="translate(-445.179 -200.416)" fill="#f8ae65"/>
        <path id="Path_4444" data-name="Path 4444" d="M508.217,221.59q-.24,3.071-.5,6.126a8.357,8.357,0,0,1-3.271.912c.192,1.6,1.735,2.663,3.119,3.495.08.416.1.9.176,1.312a5.71,5.71,0,0,0,.52-2.159,7.581,7.581,0,0,1-2.711-1.935,4.6,4.6,0,0,0,2.8-1.128C508.313,226.028,508.257,223.773,508.217,221.59Z" transform="translate(-445.996 -201.869)" fill="#f09154"/>
        <path id="Path_4445" data-name="Path 4445" d="M510.889,240c2.775-.432,5.222-2.247,7.2-4.278.344.048.64-.128.976-.08a7.484,7.484,0,0,1-2-1.783c0,.448.112.9.1,1.352a16.794,16.794,0,0,1-9.269,1.32,7.285,7.285,0,0,0,3,3.471Z" transform="translate(-446.685 -204.327)" fill="#ee6c33"/>
        <path id="Path_4446" data-name="Path 4446" d="M510.989,239.9a5.958,5.958,0,0,1-2.319-2.111,12.044,12.044,0,0,0,7.661-1.192c-.408.376-.936.9-1.335,1.272.312-.128.576-.2.888-.328A11.668,11.668,0,0,1,510.989,239.9Z" transform="translate(-446.841 -204.876)" fill="#fff3e3"/>
        <path id="Path_4447" data-name="Path 4447" d="M533.806,220.442a19.761,19.761,0,0,1-12.635,14l-.8.256c-2.591-5.23-2.447-12.747-1.136-18.393-7.053-.984-14.667-1.743-21.736-2.623a10.994,10.994,0,0,1,.416-3.295,20.064,20.064,0,0,1,4.119-8.285,12.683,12.683,0,0,1,8.093-4.8,24.791,24.791,0,0,1,9.269.128,19.193,19.193,0,0,1,12.228,8.525c.232.376.456.76.656,1.144A19.329,19.329,0,0,1,533.806,220.442Z" transform="translate(-444.603 -196.931)" fill="url(#radial-gradient)"/>
        <path id="Path_4448" data-name="Path 4448" d="M514.859,224.473a2.655,2.655,0,0,0-1.352-.64h-.288c-1.232-.12-2.895.424-2.647,1.975a1.282,1.282,0,0,0,.08.336,2.623,2.623,0,0,0,3.1,1.823,2.736,2.736,0,0,0,.48-.144,2.048,2.048,0,0,0,.68-.432,1.991,1.991,0,0,0,.592-1.328A2.039,2.039,0,0,0,514.859,224.473Zm-9.493-.144a1.663,1.663,0,0,0-.936-.76,1.512,1.512,0,0,0-.8-.048h0a1.9,1.9,0,0,0-1.168,2.543,1.52,1.52,0,0,0,2.6.584h0a1.923,1.923,0,0,0,.264-.352,2.207,2.207,0,0,0,.056-1.967Z" transform="translate(-445.569 -202.25)" fill="#fff3e3"/>
        <path id="Path_4449" data-name="Path 4449" d="M505.614,226.3a1.928,1.928,0,0,1-.264.352h0a1.36,1.36,0,0,1-1.144-.3,2,2,0,0,1-.632-1.288,2.239,2.239,0,0,1,.344-1.535h0a1.511,1.511,0,0,1,.8.048,1.663,1.663,0,0,1,.936.76A2.207,2.207,0,0,1,505.614,226.3Z" transform="translate(-445.817 -202.25)" fill="#204945"/>
        <path id="Path_4450" data-name="Path 4450" d="M517.971,226.1a1.991,1.991,0,0,1-.592,1.328,1.192,1.192,0,0,1-1.7.192,2.111,2.111,0,0,1,0-3.751h.288a2.656,2.656,0,0,1,1.352.64A2.04,2.04,0,0,1,517.971,226.1Z" transform="translate(-448.018 -202.326)" fill="#204945"/>
        <path id="Path_4451" data-name="Path 4451" d="M539.252,222.9a19.761,19.761,0,0,1-12.635,14,6.724,6.724,0,0,1-.416-.8,17.594,17.594,0,0,1-1.392-9.213,34.583,34.583,0,0,1,2.4-9.093,19.476,19.476,0,0,1,2.983-5.55,8,8,0,0,1,5.358-3.031,5.319,5.319,0,0,1,2.175.272A19.329,19.329,0,0,1,539.252,222.9Z" transform="translate(-450.049 -199.387)" fill="#e76124"/>
        <path id="Path_4452" data-name="Path 4452" d="M521.713,220.162l-15.194,1.2c-1.767.136-3.543.272-5.318.32a27.19,27.19,0,0,1-9.253-1.08q-.456-.144-.888-.312a12.547,12.547,0,0,1,5.9-6.038l1.192-.16a39.857,39.857,0,0,1,8.917-.112C513.756,214.676,518.946,217.155,521.713,220.162Z" transform="translate(-443.314 -200.306)" fill="url(#linear-gradient-28)"/>
        <path id="Path_4453" data-name="Path 4453" d="M507.263,213.951l-5.87,7.7a27.19,27.19,0,0,1-9.253-1.08,30.145,30.145,0,0,1,6.206-6.51A39.858,39.858,0,0,1,507.263,213.951Z" transform="translate(-443.531 -200.3)" fill="url(#linear-gradient-29)"/>
        <path id="Path_4454" data-name="Path 4454" d="M502.859,204.7c-.52.992-.88,2.3-.16,3.159.8,1,2.4.664,3.655.24l13.083-4.47a5.821,5.821,0,0,0,1.783-.848,1.975,1.975,0,0,0,.8-1.719c-.12-.952-1.088-1.527-1.983-1.863C513.775,196.754,506.146,198.465,502.859,204.7Z" transform="translate(-445.564 -197.17)" fill="url(#linear-gradient-30)"/>
        <path id="Path_4455" data-name="Path 4455" d="M541.427,312.689a4.854,4.854,0,0,0-4.974-1.839A7.821,7.821,0,0,0,531.934,314c-1.991,2.7-2.919,5.974-3.9,9.125q-1.543,4.95-3.431,9.8a151.059,151.059,0,0,1-8.861,18.809,7.765,7.765,0,0,0,4.942,3.391c.56.1,2.663-2.327,3.079-2.743,5.038-5.03,17.738-31.613,18.01-39.042Z" transform="translate(-448.257 -219.723)" fill="#496e6d"/>
        <path id="Path_4456" data-name="Path 4456" d="M514.554,375.005a11.77,11.77,0,0,1-2.3,1.815,13.465,13.465,0,0,1-2.783,1.431,6.254,6.254,0,0,1-5.078-.272l-4.35-2.039a9.958,9.958,0,0,1-2.887-2.127,5.6,5.6,0,0,1,4.223-4.31c1.551-.344,3.2.512,4.566,1.28h.16a3.255,3.255,0,0,0,2.543-1.1,5.479,5.479,0,0,0,1.6-3.047l1.967,1.16c.488.288,1.6.664,1.887,1.12a26.208,26.208,0,0,1,.744,4.4h0A2.167,2.167,0,0,1,514.554,375.005Z" transform="translate(-444.536 -230.921)" fill="#3b5f5a"/>
        <path id="Path_4457" data-name="Path 4457" d="M514.554,375.7a11.771,11.771,0,0,1-2.3,1.815,13.465,13.465,0,0,1-2.783,1.431,6.254,6.254,0,0,1-5.078-.272l-4.35-2.039a9.958,9.958,0,0,1-2.887-2.127,5.6,5.6,0,0,1,4.223-4.311c1.551-.344,3.2.512,4.566,1.28h.16a6.989,6.989,0,0,1,1.775,6.4,11.4,11.4,0,0,0,7-3.823A2.167,2.167,0,0,1,514.554,375.7Z" transform="translate(-444.536 -231.618)" fill="#fff6d1"/>
        <path id="Path_4458" data-name="Path 4458" d="M515.538,371.861a7.366,7.366,0,0,0-3.927-1.951c-.112.112-.24.3-.352.416a8,8,0,0,1,3.527,2.159C515.155,372.205,515.171,372.141,515.538,371.861Z" transform="translate(-447.36 -231.576)" fill="#fff6d1"/>
        <path id="Path_4459" data-name="Path 4459" d="M513.187,373.425a6.262,6.262,0,0,0-3.1-2.3.9.9,0,0,0-.5.312,4.447,4.447,0,0,1,2.183,2.8C512.267,373.937,512.675,373.769,513.187,373.425Z" transform="translate(-447.024 -231.82)" fill="#fff6d1"/>
        <path id="Path_4460" data-name="Path 4460" d="M458.919,309.521c-2.239.8-4.942-.88-6.318-2.6a17.011,17.011,0,0,1-3.055-6.4h0a10.68,10.68,0,0,1-.232-1.12c0-.192-.064-.384-.08-.576s-.056-.488-.072-.744a8,8,0,0,1,.936-4.518,4.86,4.86,0,0,1,.392-.576,5.02,5.02,0,0,1,1.088-1.048,5.159,5.159,0,0,1,3.047-.944h0a8,8,0,0,1,2.7.512,8.133,8.133,0,0,1,4.222,4h0a13.738,13.738,0,0,1,1.56,5.086C463.421,303.8,462.277,308.33,458.919,309.521Z" transform="translate(-434.917 -215.771)" fill="url(#linear-gradient-31)"/>
        <path id="Path_4461" data-name="Path 4461" d="M485.07,299.71h0a1.015,1.015,0,0,0-.408.088h-.088a3.086,3.086,0,0,0-1.136.992,4.056,4.056,0,0,0-.608,1.168c-.424,1.176-1.2,3.9.48,4.51h.048c-4.335-.88-8.957-1.487-13.275-.088-.8.272-9.541,3.919-9.773,2.943,3.359-1.192,4.534-5.694,4.214-8.909a14.3,14.3,0,0,0-.608-2.871c-.872-2.687-2.6-5.278-5.174-6.214a8,8,0,0,0-2.743-.416,21.344,21.344,0,0,1,12.891,1.671c2.591,1.28,4.446,3.6,6.958,4.982S482.079,299.334,485.07,299.71Z" transform="translate(-436.292 -215.684)" fill="url(#linear-gradient-32)"/>
        <path id="Path_4462" data-name="Path 4462" d="M490.331,307.974l1.208.328a1.6,1.6,0,0,1-1.6.576h-.048c-1.679-.608-.9-3.335-.48-4.51a3.671,3.671,0,0,1,1.743-2.159h.088a1.016,1.016,0,0,1,.408-.088c.584,0,.912.728,1.032,1.344-.424-.08-.864-.144-1.3-.216a4.7,4.7,0,0,0-1.048,4.726Z" transform="translate(-442.874 -217.998)" fill="#951b1e"/>
        <path id="Path_4463" data-name="Path 4463" d="M503.893,308.414a3.887,3.887,0,0,1-1.5,2.479,97.909,97.909,0,0,1-10.556-2.327l-1.208-.328a4.7,4.7,0,0,1,1.04-4.8c.44.072.88.136,1.3.216,3.4.544,6.654,1.112,10.084,1.647h.12A4.6,4.6,0,0,1,503.893,308.414Z" transform="translate(-443.176 -218.263)" fill="url(#linear-gradient-33)"/>
        <path id="Path_4464" data-name="Path 4464" d="M449.386,293.964a8,8,0,0,0-.936,4.518,5.714,5.714,0,0,0,.072.744,8.847,8.847,0,0,0-2.4-.8,5.063,5.063,0,0,1-.384-1.056,5.447,5.447,0,0,1,.464-3.847,4.359,4.359,0,0,1,.448-.7c1.088.216,2.071.352,3.127.536A4.845,4.845,0,0,0,449.386,293.964Z" transform="translate(-434.205 -216.136)" fill="url(#linear-gradient-34)"/>
        <path id="Path_4465" data-name="Path 4465" d="M433.89,295.259h0l-.888-.184c-1.344-.5-1.7-2.167-1.112-3.575a6.805,6.805,0,0,0,.872,2.287A5.4,5.4,0,0,0,433.89,295.259Z" transform="translate(-431.409 -215.871)" fill="url(#linear-gradient-35)"/>
        <path id="Path_4466" data-name="Path 4466" d="M445.529,297.5l-.944-.2a9.251,9.251,0,0,1,0-2.1,8.116,8.116,0,0,1,.28-1.447,3.685,3.685,0,0,1,.12-.424l.976.328A5.446,5.446,0,0,0,445.529,297.5Z" transform="translate(-433.994 -216.238)" fill="url(#linear-gradient-36)"/>
        <path id="Path_4467" data-name="Path 4467" d="M484.38,308.29h.048c-4.334-.88-8.957-1.487-13.275-.088-.8.272-9.541,3.919-9.773,2.943,3.359-1.192,4.534-5.694,4.214-8.909a14.292,14.292,0,0,0-.608-2.871c2.335-.512,4.446,1.056,6.71,1.991a21.177,21.177,0,0,0,11.324,1.384,9.2,9.2,0,0,1,1.5-.16,4.052,4.052,0,0,0-.608,1.168C483.468,304.955,482.668,307.682,484.38,308.29Z" transform="translate(-437.37 -217.427)" fill="url(#linear-gradient-37)"/>
        <path id="Path_4468" data-name="Path 4468" d="M462.693,291.146c-.672.2-1.4.656-.456,1.128a19.809,19.809,0,0,0,4.334,1.791c.4.1,4.15.592,3.559-.5-.36-.656-1.727-1.16-2.4-1.463a10.6,10.6,0,0,0-4.5-1.056A2.4,2.4,0,0,0,462.693,291.146Z" transform="translate(-437.451 -215.781)" fill="url(#linear-gradient-38)"/>
        <path id="Path_4469" data-name="Path 4469" d="M506.728,308.885a3.886,3.886,0,0,1-1.5,2.479,1.24,1.24,0,0,1-.144-.312,6.558,6.558,0,0,1-.552-3.063,3.335,3.335,0,0,1,1.359-2.2h.12A4.6,4.6,0,0,1,506.728,308.885Z" transform="translate(-446.011 -218.734)" fill="#424032"/>
        <path id="Path_4470" data-name="Path 4470" d="M445.536,294.044l-.368,1.375-.528-.112a8.116,8.116,0,0,1,.28-1.447Z" transform="translate(-434.017 -216.344)" fill="url(#linear-gradient-39)"/>
        <path id="Path_4471" data-name="Path 4471" d="M491.65,305.2l9.773,2.607c.12-.992.4-1.735,1.016-2.023L492.13,304.25Z" transform="translate(-443.433 -218.425)" fill="url(#linear-gradient-40)"/>
        <path id="Path_4472" data-name="Path 4472" d="M461.388,297.446a1.863,1.863,0,0,1-1.6.632,8.33,8.33,0,0,1-1.751-.416,8.349,8.349,0,0,0-5.3.04,5.75,5.75,0,0,0-3.2,2.855,10.664,10.664,0,0,1-.232-1.12c0-.192-.064-.384-.08-.576s-.056-.488-.072-.744a8,8,0,0,1,.936-4.518,4.85,4.85,0,0,1,.392-.576,5.014,5.014,0,0,1,1.088-1.048,5.158,5.158,0,0,1,3.055-.976h0a8,8,0,0,1,2.7.512,8.133,8.133,0,0,1,4.222,4h0a2.709,2.709,0,0,1,.056.272A2.1,2.1,0,0,1,461.388,297.446Z" transform="translate(-434.915 -215.771)" fill="url(#linear-gradient-41)"/>
        <path id="Path_4473" data-name="Path 4473" d="M449.987,299.289a5.958,5.958,0,0,1,1.8-5.086c6.478-5.6,14.667,11.676,6.222,14.779-1.839.68-4.071-.744-5.2-2.207a14.618,14.618,0,0,1-2.823-7.485Z" transform="translate(-435.078 -216.191)" fill="#69695a"/>
        <path id="Path_4474" data-name="Path 4474" d="M450.439,299.7a5.662,5.662,0,0,1,1.7-4.8c6.15-5.286,13.915,11.068,5.9,14.019-1.743.64-3.855-.712-4.926-2.1A13.939,13.939,0,0,1,450.439,299.7Z" transform="translate(-435.17 -216.343)" fill="url(#linear-gradient-42)"/>
        <path id="Path_4475" data-name="Path 4475" d="M460.522,302.911a2.287,2.287,0,0,1-.864,1.6,1.91,1.91,0,0,1-.608.28,18.969,18.969,0,0,0-.472-3.583c-.184,1.216-.36,2.439-.552,3.663a6.779,6.779,0,0,1-1.056-.184l-.416-.1c-.168-1.471-.344-2.943-.6-4.406-.8.712-.608,2.279-.6,3.263a5.745,5.745,0,0,0,.056.8c-.568-.176-1.136-.368-1.68-.592l-.1-.04c-.352-1.3-.656-2.6-.9-3.9a9.371,9.371,0,0,0-.28,3.311,2.889,2.889,0,0,1-.488-.4,3.423,3.423,0,0,1-.88-2.687v-.648a3.607,3.607,0,0,1,1.487-3.111,4.238,4.238,0,0,1,4.094-.216c1.943.92,3.071,3.2,3.631,5.15A4.711,4.711,0,0,1,460.522,302.911Z" transform="translate(-435.304 -216.678)" fill="url(#linear-gradient-43)"/>
        <path id="Path_4476" data-name="Path 4476" d="M534.981,281.421a51.354,51.354,0,0,1-5.718,9.916c-3.743,4.111-14.859,6.718-22.52,8.877a6.574,6.574,0,0,1-2.959,3.663,5.135,5.135,0,0,1-2.623.56,4.207,4.207,0,0,1-1.248,2.215c-1.2-.168-2.527-.344-3.839-.6l-.672-.136c-.624-.144-1.224-.3-1.807-.5-.288-.1-.576-.2-.856-.32a8.9,8.9,0,0,1-1.432-.728l-.272-.176a1.121,1.121,0,0,0-.256-.144c-.688-.352-1.655-.472-2.183-.984a12,12,0,0,1,.76-4.75,37.594,37.594,0,0,1,4.126-4.462,5.991,5.991,0,0,1,1.5.76l.176.168c.512.064,1.024.128,1.543.176,2.639.3,5.27.528,7.925.76,4.974-1.352,9.6-2.759,13.835-5.742a19.194,19.194,0,0,1,6.246-3.111q1.5-4.894,3.2-9.6A10.2,10.2,0,0,1,534.981,281.421Z" transform="translate(-442.819 -213.021)" fill="#fecb88"/>
        <path id="Path_4477" data-name="Path 4477" d="M493.235,302.88c-.328.9-1.144,1.6-1.2,2.591-.08,1.36-.128,2.671-.208,4l-.272-.176a1.119,1.119,0,0,0-.256-.144,18.65,18.65,0,0,1,0-4.223Z" transform="translate(-443.338 -218.151)" fill="#f09154"/>
        <path id="Path_4478" data-name="Path 4478" d="M547.984,266.255c.04-3.431-1.3-7.021-4.087-9-2.215,5.238-4.286,10.54-6.2,15.994a10.2,10.2,0,0,1,7.118,4.174c.048-.12.1-.24.16-.368C546.425,273.652,547.936,269.989,547.984,266.255Z" transform="translate(-452.656 -209.012)" fill="#f8982b"/>
        <path id="Path_4479" data-name="Path 4479" d="M496.107,304.56A16.516,16.516,0,0,0,494.972,308c-.144,1-.224,1.919-.336,2.887-.288-.1-.576-.2-.856-.32a13.51,13.51,0,0,1,.536-2.671A12.325,12.325,0,0,1,496.107,304.56Z" transform="translate(-443.859 -218.487)" fill="#f09154"/>
        <path id="Path_4480" data-name="Path 4480" d="M500,305.62a21.2,21.2,0,0,1-.28,2.159,16.913,16.913,0,0,1-1.935,3.951l-.672-.136c.464-.9.928-1.751,1.384-2.719C498.989,307.787,499.493,306.724,500,305.62Z" transform="translate(-444.526 -218.699)" fill="#f09154"/>
        <path id="Path_4481" data-name="Path 4481" d="M503.478,302.881a14.675,14.675,0,0,1-6.678-3.711c.512.064,1.024.128,1.543.176A22.472,22.472,0,0,0,503.478,302.881Z" transform="translate(-444.464 -217.408)" fill="#f09154"/>
        <path id="Path_4482" data-name="Path 4482" d="M486.018,364.842l-.168-.04.16-.112Z" transform="translate(-442.271 -230.53)" fill="#fff6d1"/>
      </g>
    </g>
  </g>
</svg>
